<?xml version="1.0" encoding="utf-8"?>
<!-- Generator: Adobe Illustrator 27.5.0, SVG Export Plug-In . SVG Version: 6.00 Build 0)  -->
<svg version="1.1" id="Layer_1" xmlns="http://www.w3.org/2000/svg" xmlns:xlink="http://www.w3.org/1999/xlink" x="0px" y="0px"
	 viewBox="0 0 386.447 314.872" style="enable-background:new 0 0 386.447 314.872;" xml:space="preserve">
<g id="XMLID_1_">
	<g>
	</g>
</g>
<g>
	<g>
		<g>
			<path style="fill:#EEA19E;" d="M95.126,173.989c1.133-0.424,2.233-0.923,3.279-1.538c4.509-2.645,8.177-6.523,11.193-10.75
				c5.95-8.341,9.973-17.567,10.319-27.938c0.182-5.45-0.436-10.849-1.493-16.193c-0.97-4.908-2.122-10.379-4.776-14.693
				c-4.482-7.285-11.026-11.737-18.21-15.856c-1.044,1.646-1.854,3.752-2.539,5.415c-0.915,2.234-2.021,4.344-3.229,6.404
				c-1.162-2.596-2.672-5.015-4.295-7.38c-1.167-1.701-2.205-4.569-3.99-5.89c-4.229,4.1-10.118,12.525-13.148,17.181
				c-0.464,0.984-0.897,1.984-1.301,2.998c-3.126,7.857-4.651,16.549-4.623,25.053c0.057,0.842,0.123,1.676,0.207,2.488
				c0.498,4.895,1.486,9.711,2.931,14.385c1.895,4.636,4.558,8.972,7.729,12.881c5.468,6.737,12.345,12.584,21.132,12.989
				C94.578,173.703,94.852,173.851,95.126,173.989z"/>
			<path style="fill:#EEA19E;" d="M99.334,178.727c0.863,0.844,1.784,1.628,2.784,2.314c4.313,2.954,9.384,4.624,14.491,5.555
				c10.081,1.836,20.142,1.551,29.675-2.549c5.009-2.155,9.632-5.01,14.02-8.239c4.027-2.967,8.489-6.338,11.263-10.575
				c4.686-7.157,5.932-14.973,6.601-23.226c-1.935-0.244-4.184-0.082-5.98,0.007c-2.411,0.121-4.791,0.018-7.169-0.198
				c1.854-2.157,3.401-4.554,4.851-7.029c1.044-1.779,3.196-3.939,3.632-6.116c-5.508-2.083-15.64-3.829-21.142-4.589
				c-1.089-0.001-2.179,0.031-3.268,0.098c-8.438,0.514-16.954,2.832-24.639,6.478c-0.739,0.41-1.465,0.825-2.163,1.245
				c-4.218,2.535-8.156,5.478-11.771,8.772c-3.389,3.688-6.18,7.944-8.368,12.478c-3.77,7.814-6.136,16.525-2.762,24.649
				C99.358,178.109,99.341,178.419,99.334,178.727z"/>
			<path style="fill:#EEA19E;" d="M88.188,175.323c-0.768,0.934-1.594,1.814-2.515,2.606c-3.961,3.41-8.817,5.628-13.794,7.113
				c-9.817,2.932-19.849,3.753-29.772,0.726c-5.218-1.591-10.124-3.922-14.84-6.65c-4.331-2.505-9.136-5.367-12.358-9.275
				c-5.442-6.598-7.538-14.229-9.112-22.359c1.897-0.454,4.15-0.542,5.947-0.65c2.407-0.145,4.763-0.508,7.103-0.984
				c-2.079-1.94-3.88-4.152-5.593-6.453c-1.233-1.654-3.611-3.564-4.284-5.68c5.248-2.675,15.126-5.524,20.511-6.884
				c1.082-0.122,2.169-0.209,3.259-0.262c8.443-0.416,17.164,0.953,25.201,3.73c0.778,0.327,1.546,0.659,2.286,1.001
				c4.472,2.056,8.709,4.549,12.665,7.426c3.772,3.293,7.014,7.216,9.687,11.483c4.605,7.353,7.914,15.751,5.455,24.197
				C88.096,174.712,88.146,175.018,88.188,175.323z"/>
			<path style="fill:#EEA19E;" d="M92.682,173.019c0.697,0.987,1.328,2.018,1.85,3.115c2.241,4.721,3.098,9.991,3.217,15.182
				c0.234,10.244-1.624,20.135-7.167,28.908c-2.912,4.61-6.457,8.729-10.333,12.556c-3.562,3.515-7.59,7.392-12.21,9.469
				c-7.802,3.506-15.716,3.512-23.972,2.881c0.063-1.948,0.574-4.145,0.943-5.905c0.496-2.362,0.77-4.73,0.927-7.111
				c-2.42,1.493-5.028,2.646-7.701,3.69c-1.92,0.752-4.39,2.541-6.608,2.629c-1.195-5.767-1.332-16.047-1.222-21.6
				c0.17-1.075,0.373-2.146,0.609-3.212c1.828-8.255,5.453-16.302,10.256-23.32c0.521-0.665,1.043-1.317,1.568-1.942
				c3.164-3.768,6.688-7.197,10.509-10.253c4.172-2.769,8.814-4.858,13.633-6.309c8.31-2.5,17.282-3.472,24.779,1.132
				C92.068,172.948,92.377,172.979,92.682,173.019z"/>
			<path style="fill:#EEA19E;" d="M91.337,173.019c-0.697,0.987-1.328,2.018-1.85,3.115c-2.241,4.721-3.097,9.991-3.217,15.182
				c-0.232,10.244,1.624,20.135,7.167,28.908c2.912,4.61,6.457,8.729,10.333,12.556c3.562,3.515,7.592,7.392,12.21,9.469
				c7.802,3.506,15.716,3.512,23.972,2.881c-0.063-1.948-0.572-4.145-0.943-5.905c-0.496-2.362-0.768-4.73-0.927-7.111
				c2.42,1.493,5.03,2.646,7.702,3.69c1.919,0.752,4.39,2.541,6.609,2.629c1.193-5.767,1.33-16.047,1.221-21.6
				c-0.171-1.075-0.374-2.146-0.608-3.212c-1.83-8.255-5.454-16.302-10.257-23.32c-0.519-0.665-1.044-1.317-1.569-1.942
				c-3.163-3.768-6.688-7.197-10.509-10.253c-4.172-2.769-8.812-4.858-13.633-6.309c-8.308-2.5-17.282-3.472-24.778,1.132
				C91.95,172.948,91.642,172.979,91.337,173.019z"/>
		</g>
		<path style="fill:#EEA19E;" d="M160.097,168.439c-6.359,3.95-13.201,7.109-20.445,9.046c-4.843,1.295-10.754,2.888-15.573,0.751
			c-0.399-0.178-0.313-0.747,0-0.947c6.21-3.983,12.387-8.031,18.123-12.666c-3.486,1.628-6.959,3.279-10.531,4.727
			c-5.377,2.179-12.06,5.28-18.025,4.554c-6.686-0.813-2.006-9.037-0.178-12.118c5.115-8.618,12.492-15.356,21.154-20.154
			c-8.813,2.888-16.805,8.613-22.603,15.748c-0.362,0.447-1.044-0.037-0.915-0.533c2.485-9.582,10.38-18.068,18.142-23.829
			c4.551-3.379,9.662-5.97,15.246-7.128c3.931-0.816,7.903-1.097,11.892-1.198c-1.485-0.242-2.86-0.449-4.022-0.61
			c-1.089-0.001-2.179,0.031-3.268,0.098c-8.438,0.514-16.954,2.832-24.639,6.478c-0.739,0.41-1.465,0.825-2.163,1.245
			c-0.802,0.482-1.586,0.994-2.366,1.505c0.144-5.328-0.465-10.608-1.499-15.835c-0.97-4.908-2.122-10.379-4.776-14.693
			c-0.676-1.099-1.403-2.126-2.169-3.105c1.904,5.69,3.584,11.254,4.412,17.282c1.231,8.955,2.233,21.017-3.874,28.536
			c-0.212,0.261-0.72,0.19-0.86-0.111c-1.729-3.685-1.309-7.802-1.786-11.742c-0.465-3.841-1.525-8.18-3.185-11.905
			c1.147,9.745,1.733,19.367,0.232,29.158c-0.899,5.887-2.33,15.089-8.572,17.8c-6.842,2.971-12.371-6.706-14.92-11.44
			c-4.052-7.532-5.793-15.526-6.776-23.814c-0.268,3.292-0.461,6.593-0.061,9.848c0.669,5.449,2.349,10.69,3.323,16.082
			c0.096,0.54-0.491,0.911-0.917,0.533c-5.07-4.5-7.412-11.689-9.615-17.895c-2.683-7.553-4.765-15.716-3.821-23.796
			c0.641-5.495,2.033-11.785,4.48-17.524c-0.476,0.707-0.913,1.37-1.304,1.968c-0.464,0.984-0.897,1.984-1.301,2.998
			c-3.126,7.857-4.651,16.549-4.623,25.053c0.036,0.538,0.085,1.061,0.133,1.589c-0.737-0.37-1.469-0.744-2.219-1.088
			c-0.74-0.341-1.508-0.674-2.286-1.001c-5.552-1.918-11.427-3.145-17.311-3.596c3.36,1.314,6.684,2.762,9.62,4.878
			c7.61,5.483,14.237,13.653,16.024,23.064c0.686,3.614,1.012,7.699-1.181,10.886c-1.816,2.64-5.271,2.65-8.058,1.905
			c-2.701-0.724-5.4-1.641-8.04-2.732c0.231,0.193,0.46,0.386,0.691,0.578c1.707,1.403,7.608,5.432,5.754,8.255
			c-1.135,1.731-5.178,1.208-6.782,1.054c-3.571-0.345-6.961-1.277-10.282-2.629c-4.41-1.797-8.523-4.356-12.276-7.338
			c1.773,1.975,3.683,3.825,5.792,5.305c2.639,1.851,5.649,3.453,7.42,6.243c0.207,0.326-0.013,0.679-0.327,0.805
			c-3.255,1.303-6.995,0.074-10.024-1.299c-3.927-1.78-7.591-4.114-11.049-6.68c-3.664-2.719-6.849-5.698-8.967-9.814
			c-0.079-0.154-0.149-0.313-0.227-0.469c1.419,3.94,3.346,7.675,6.191,11.125c3.223,3.908,8.027,6.77,12.358,9.275
			c4.716,2.728,9.622,5.058,14.84,6.65c0.811,0.247,1.626,0.46,2.438,0.657c-0.574,0.639-1.154,1.274-1.707,1.934
			c-0.525,0.625-1.048,1.277-1.568,1.942c-4.803,7.018-8.428,15.065-10.256,23.32c-0.136,0.614-0.259,1.229-0.373,1.848
			c1.451-3.841,3.376-7.509,5.96-10.907c2.908-3.826,6.311-7.216,10.224-10.02c4.213-3.019,9.078-6.603,14.137-7.951
			c0.546-0.146,0.896,0.516,0.532,0.916c-2.836,3.123-6.078,5.772-8.522,9.245c-0.877,1.248-1.743,2.503-2.571,3.778
			c3.14-3.097,6.943-5.558,10.857-7.544c5.401-2.741,11.84-6.762,18.144-5.272c0.305,0.072,0.442,0.39,0.383,0.674
			c-0.724,3.557-3.723,6.492-5.701,9.428c-2.25,3.339-4.469,6.7-6.794,9.987c4.513-3.842,8.13-8.649,12.516-12.651
			c0.316-0.289,0.991-0.123,0.936,0.388c-1.006,9.029-6.162,16.488-9.562,24.688c4.676-4.948,8.348-10.834,11.347-16.918
			c0.201-0.406,0.925-0.333,1.002,0.131c1.095,6.582-0.754,13.311-3.569,19.246c-2.635,5.55-6.059,11.039-10.533,15.307
			c-2.386,2.274-5.252,4.582-8.391,6.526c2.347-0.499,4.681-1.227,7.002-2.27c4.62-2.077,8.648-5.954,12.21-9.469
			c3.876-3.827,7.421-7.946,10.333-12.556c0.51-0.808,0.979-1.628,1.429-2.454c0.448,0.826,0.918,1.646,1.428,2.454
			c2.912,4.61,6.457,8.729,10.333,12.556c3.562,3.515,7.592,7.392,12.21,9.469c3.373,1.515,6.766,2.375,10.197,2.813
			c-4.633-2.009-9.053-4.511-12.959-7.72c-5.655-4.646-9.899-10.62-12.843-17.294c-2.352-5.331-5.383-12.038-3.496-17.919
			c0.148-0.461,0.739-0.532,1.003-0.13c4.34,6.638,7.137,14.349,12.748,19.982c-2.979-4.834-6.053-9.68-7.834-15.086
			c-1.499-4.553-3.386-9.959-1.37-14.627c0.153-0.354,0.618-0.307,0.86-0.111c3.636,2.934,5.742,7.268,9.271,10.317
			c2.11,1.824,4.384,3.445,6.494,5.248c-2.022-3.144-4.085-6.294-6.461-9.116c-2.244-2.665-5.243-5.337-5.916-8.909
			c-0.042-0.224,0.019-0.514,0.252-0.62c4.708-2.103,10.815,1.444,14.858,3.689c4.883,2.712,9.045,5.87,12.941,9.616
			c-3.104-4.934-6.534-9.608-11.333-13.107c-0.472-0.343-0.21-1.206,0.423-1.002c10.015,3.24,19.405,9.888,25.383,18.632
			c2.957,4.329,4.496,9.013,5.443,13.876c0.006-1.461-0.006-2.809-0.028-3.95c-0.171-1.075-0.374-2.146-0.608-3.212
			c-1.83-8.255-5.454-16.302-10.257-23.32c-0.519-0.665-1.044-1.317-1.569-1.942c-0.577-0.688-1.18-1.353-1.78-2.018
			c2.318-0.567,4.617-1.32,6.885-2.294c5.009-2.155,9.632-5.01,14.02-8.239c4.027-2.967,8.489-6.338,11.263-10.575
			c3.196-4.882,4.789-10.072,5.693-15.497C174.078,157.559,167.602,163.779,160.097,168.439z"/>
		<path style="fill:#FFFFFF;" d="M104.625,177.288c-0.869-0.103-1.735-0.224-2.602-0.344c3.444-0.905,6.658-2.77,9.597-5.407
			c4.721-4.236,8.72-12.171,7.989-18.589c-0.076-0.655-1.021,0.146-0.987,0.603c0.462,6.379-3.871,13.518-8.477,17.616
			c-2.608,2.32-6.095,3.88-9.471,4.641c-1.364,0.307-3.201,0.105-4.539-0.035c2.664-3.009,4.68-8.83,5.229-10.61
			c3.018-9.793,2.601-19.063,2.416-29.175c-0.008-0.497-0.766,0.117-0.768,0.47c-0.053,7.232,0.097,14.394-1.133,21.547
			c-0.555,3.23-1.691,6.418-2.707,9.531c-0.322,0.986-2.306,5.649-4.414,7.46c1.409-2.599,2.201-5.355,2.235-8.592
			c0.007-0.634-1.016,0.078-1.04,0.505c-0.103,1.88-0.52,3.658-1.082,5.453c-0.377,1.207-0.972,2.231-1.652,3.216
			c-0.025-0.014-0.039-0.04-0.068-0.049c-0.028-0.019-0.057-0.041-0.085-0.061c0.089-0.485-0.111-0.874-0.803-0.507
			c-0.336,0.179-0.603,0.44-0.76,0.779c-0.012-0.009-0.025-0.018-0.036-0.027c0.021-0.024,0.045-0.048,0.059-0.07
			c0.236-0.362,0.377-0.739,0.453-1.126c0.111-0.115,0.2-0.241,0.23-0.36c0.877-3.32,0.439-6.579,0.181-9.97
			c-0.296-3.871-0.779-7.715-1.965-11.432c-2.455-7.698-5.752-15.36-11.606-21.03c-0.288-0.279-0.905,0.466-0.619,0.764
			c8.469,8.744,12.673,22.845,12.966,35.451c-0.392-2.406-0.909-4.673-1.748-7.074c-2.269-6.48-6.913-12.398-12.262-16.631
			c-0.343-0.272-0.989,0.525-0.661,0.818c4.31,3.855,7.523,8.606,10.073,13.771c1.351,2.73,2.358,5.78,2.9,8.769
			c0.383,2.115,1.127,5.068,1.036,7.366c-7.54-6.027-14.88-14.306-17.984-23.347c-0.137-0.398-0.862,0.248-0.771,0.573
			c1.419,5.003,3.964,9.772,7.275,13.775c2.771,3.348,5.791,7.081,9.273,9.935c-5.932-0.716-11.196-2.884-16.706-6.027
			c-5.928-3.384-11.228-7.478-14.794-13.387c-0.241-0.398-0.921,0.309-0.737,0.652c6.555,12.222,21.217,20.348,34.988,20.751
			c0.042,0.027,0.085,0.056,0.129,0.082c0.014,0.009,0.028,0.01,0.044,0.017c-4.436,4.343-13.137,4.663-18.872,4.919
			c-6.03,0.271-14.893-1.147-19.849-4.853c-0.4-0.299-1.143,0.628-0.75,0.926c5.573,4.255,14.385,5.772,21.229,5.556
			c5.047-0.16,11.788-0.665,16.524-3.56c-0.101,0.156-0.167,0.26-0.18,0.277c-1.457,1.999-3.782,3.373-5.891,4.573
			c-3.977,2.264-9.521,4.889-14.207,4.016c-0.407-0.076-1.006,0.804-0.522,0.925c5.359,1.348,11.396-1.751,15.94-4.294
			c2.951-1.653,6.064-4.417,7.733-7.635c1.165,5.941-0.828,13.966-4.448,18.328c-0.514,0.62,0.095,1.097,0.619,0.501
			c2.467-2.811,4.126-6.896,4.859-10.535c0.364-1.808,1.281-5.805,0.887-8.672c4.978,5.287,6.485,11.453,6.053,19.029
			c-0.155,0.888,1.357,0.573,1.605-0.548c1.521-6.819-0.671-13.656-5.318-18.483c1.534-0.01,3.059-0.014,4.621,0.169
			c4.575,0.536,8.318,1.265,12.313,3.68c0.563,0.339,1.52-0.861,0.987-1.218C111.369,178.95,108.465,177.738,104.625,177.288z"/>
	</g>
	<g>
		<g>
			<path style="fill:#EEA19E;" d="M219.294,237.612c1.055,0.049,2.108,0.028,3.161-0.105c4.528-0.571,8.808-2.421,12.685-4.777
				c7.647-4.647,14.054-10.67,17.899-18.875c2.023-4.313,3.386-8.859,4.376-13.512c0.911-4.275,1.868-9.063,1.222-13.44
				c-1.091-7.392-4.809-13.217-9.159-18.997c-1.404,0.963-2.781,2.373-3.901,3.474c-1.504,1.477-3.118,2.79-4.797,4.029
				c-0.04-2.484-0.419-4.946-0.907-7.404c-0.352-1.766-0.197-4.426-1.177-6.101c-4.805,1.835-12.434,6.571-16.467,9.265
				c-0.713,0.631-1.406,1.285-2.077,1.96c-5.215,5.231-9.431,11.684-12.335,18.52c-0.244,0.696-0.478,1.388-0.689,2.067
				c-1.284,4.102-2.15,8.309-2.6,12.558c-0.075,4.373,0.57,8.77,1.773,13c2.068,7.29,5.577,14.351,12.492,17.701
				C218.952,237.193,219.121,237.407,219.294,237.612z"/>
			<path style="fill:#EEA19E;" d="M221.04,242.864c0.403,0.975,0.872,1.921,1.44,2.816c2.443,3.855,5.939,6.942,9.721,9.447
				c7.459,4.943,15.634,8.177,24.697,8.166c4.761-0.005,9.457-0.706,14.089-1.788c4.256-0.995,8.997-2.166,12.683-4.612
				c6.224-4.132,9.914-9.978,13.294-16.373c-1.471-0.861-3.331-1.507-4.805-2.053c-1.977-0.733-3.852-1.634-5.686-2.626
				c2.229-1.094,4.297-2.485,6.313-3.973c1.449-1.07,3.922-2.063,5.022-3.659c-3.706-3.568-11.238-8.456-15.393-10.961
				c-0.873-0.376-1.76-0.725-2.655-1.047c-6.951-2.492-14.587-3.563-22.009-3.28c-0.733,0.075-1.459,0.157-2.166,0.254
				c-4.257,0.584-8.433,1.59-12.47,2.991c-3.988,1.793-7.693,4.25-11.011,7.136c-5.716,4.975-10.613,11.153-10.702,18.836
				C221.273,242.376,221.152,242.62,221.04,242.864z"/>
			<path style="fill:#EEA19E;" d="M213.265,236.295c-0.938,0.485-1.905,0.908-2.915,1.227c-4.354,1.373-9.017,1.481-13.521,0.962
				c-8.891-1.025-17.225-3.818-24.151-9.666c-3.64-3.072-6.777-6.632-9.624-10.445c-2.613-3.502-5.485-7.452-6.726-11.698
				c-2.1-7.171-1.154-14.018,0.381-21.085c1.678,0.288,3.518,0.992,4.995,1.524c1.984,0.713,4,1.232,6.042,1.655
				c-1.002-2.273-1.687-4.669-2.27-7.105c-0.421-1.751-1.671-4.104-1.481-6.033c5.13-0.342,14.04,0.772,18.831,1.534
				c0.912,0.275,1.814,0.579,2.708,0.911c6.922,2.573,13.451,6.672,18.945,11.669c0.513,0.529,1.016,1.061,1.492,1.588
				c2.88,3.189,5.425,6.65,7.608,10.322c1.896,3.941,3.149,8.208,3.823,12.551c1.167,7.488,0.933,15.369-3.948,21.302
				C213.399,235.772,213.335,236.036,213.265,236.295z"/>
			<path style="fill:#EEA19E;" d="M217.664,235.993c0.222,1.032,0.371,2.076,0.413,3.136c0.175,4.562-0.953,9.087-2.645,13.295
				c-3.337,8.304-8.233,15.605-15.702,20.738c-3.926,2.7-8.186,4.786-12.617,6.523c-4.068,1.596-8.636,3.322-13.06,3.399
				c-7.47,0.129-13.824-2.59-20.235-5.938c0.72-1.542,1.887-3.131,2.789-4.416c1.212-1.725,2.247-3.532,3.194-5.389
				c-2.458,0.366-4.949,0.392-7.453,0.311c-1.802-0.058-4.399,0.528-6.211-0.163c1.025-5.042,4.454-13.34,6.455-17.76
				c0.506-0.805,1.036-1.596,1.593-2.369c4.309-5.997,9.988-11.211,16.261-15.19c0.646-0.355,1.291-0.698,1.927-1.02
				c3.837-1.935,7.846-3.476,11.965-4.613c4.302-0.787,8.747-0.867,13.115-0.371c7.531,0.853,15.069,3.161,19.503,9.437
				C217.196,235.725,217.433,235.855,217.664,235.993z"/>
			<path style="fill:#EEA19E;" d="M216.584,235.529c-0.899,0.552-1.76,1.163-2.556,1.864c-3.425,3.019-5.926,6.954-7.807,11.08
				c-3.714,8.142-5.629,16.723-4.197,25.672c0.751,4.704,2.177,9.23,3.974,13.637c1.647,4.047,3.548,8.546,6.541,11.803
				c5.057,5.5,11.407,8.229,18.252,10.564c0.622-1.585,0.969-3.525,1.275-5.065c0.415-2.067,1.012-4.061,1.703-6.027
				c1.431,2.031,3.128,3.854,4.912,5.613c1.283,1.264,2.651,3.55,4.401,4.386c2.944-4.219,6.591-12.423,8.414-16.919
				c0.234-0.921,0.441-1.852,0.617-2.788c1.374-7.256,1.233-14.964-0.206-22.25c-0.189-0.712-0.385-1.416-0.592-2.098
				c-1.242-4.114-2.891-8.08-4.906-11.847c-2.396-3.66-5.401-6.934-8.771-9.757c-5.811-4.867-12.681-8.736-20.281-7.621
				C217.104,235.684,216.844,235.602,216.584,235.529z"/>
		</g>
		<path style="fill:#EEA19E;" d="M273.357,255.52c-6.464,0.982-13.044,1.163-19.524,0.224c-4.333-0.628-9.626-1.384-12.76-4.757
			c-0.26-0.28,0.006-0.706,0.325-0.76c6.356-1.061,12.707-2.185,18.908-3.93c-3.359,0.106-6.715,0.237-10.083,0.169
			c-5.064-0.102-11.496,0.088-16.035-2.548c-5.087-2.955,1.5-7.946,4.029-9.789c7.07-5.158,15.311-8.027,23.917-8.898
			c-8.069-0.715-16.454,1.13-23.564,4.861c-0.445,0.234-0.826-0.39-0.552-0.744c5.294-6.835,14.553-10.931,22.764-12.885
			c4.817-1.145,9.813-1.465,14.693-0.474c3.437,0.698,6.722,1.84,9.96,3.132c-1.11-0.706-2.143-1.346-3.021-1.874
			c-0.873-0.376-1.76-0.725-2.655-1.047c-6.951-2.492-14.587-3.563-22.009-3.28c-0.733,0.075-1.459,0.157-2.166,0.254
			c-0.811,0.111-1.614,0.252-2.419,0.393c1.951-4.227,3.279-8.675,4.249-13.226c0.911-4.275,1.868-9.063,1.222-13.44
			c-0.162-1.115-0.393-2.19-0.672-3.24c-0.429,5.224-0.997,10.268-2.406,15.392c-2.094,7.612-5.441,17.64-12.932,21.573
			c-0.26,0.137-0.643-0.094-0.652-0.384c-0.121-3.555,1.635-6.714,2.609-10.041c0.947-3.244,1.591-7.093,1.54-10.654
			c-2.433,8.218-5.274,16.144-9.85,23.487c-2.749,4.416-7.063,11.311-13.008,11.338c-6.516,0.03-7.624-9.641-8.039-14.319
			c-0.661-7.44,0.691-14.458,2.757-21.449c-1.349,2.55-2.639,5.133-3.439,7.884c-1.338,4.604-1.792,9.39-2.868,14.054
			c-0.108,0.467-0.707,0.563-0.919,0.113c-2.521-5.358-1.927-11.935-1.56-17.676c0.445-6.986,1.586-14.255,5.123-20.417
			c2.406-4.192,5.689-8.761,9.628-12.526c-0.623,0.403-1.203,0.785-1.722,1.131c-0.713,0.631-1.406,1.285-2.077,1.96
			c-5.215,5.231-9.431,11.684-12.335,18.52c-0.155,0.444-0.296,0.881-0.441,1.321c-0.462-0.55-0.923-1.103-1.404-1.638
			c-0.477-0.527-0.98-1.059-1.492-1.588c-3.795-3.451-8.088-6.458-12.657-8.846c2.244,2.212,4.414,4.518,6.043,7.228
			c4.221,7.022,6.729,15.861,4.924,24.03c-0.693,3.137-1.838,6.529-4.694,8.332c-2.364,1.495-5.144,0.314-7.122-1.244
			c-1.921-1.512-3.77-3.175-5.517-4.961c0.119,0.236,0.237,0.469,0.358,0.703c0.887,1.714,4.236,6.979,1.777,8.608
			c-1.509,0.999-4.574-0.813-5.808-1.489c-2.748-1.507-5.148-3.42-7.349-5.649c-2.923-2.96-5.343-6.43-7.33-10.117
			c0.745,2.197,1.639,4.339,2.823,6.253c1.481,2.393,3.348,4.716,3.808,7.566c0.056,0.333-0.244,0.54-0.54,0.533
			c-3.059-0.074-5.64-2.348-7.599-4.493c-2.54-2.781-4.678-5.917-6.57-9.166c-2.004-3.443-3.537-6.932-3.819-10.965
			c-0.012-0.15-0.015-0.303-0.023-0.455c-0.216,3.651,0.045,7.312,1.143,11.062c1.24,4.246,4.112,8.195,6.726,11.698
			c2.847,3.814,5.984,7.374,9.624,10.445c0.566,0.479,1.146,0.929,1.731,1.368c-0.68,0.314-1.364,0.626-2.035,0.964
			c-0.636,0.321-1.28,0.665-1.927,1.02c-6.272,3.979-11.952,9.193-16.261,15.19c-0.319,0.445-0.631,0.898-0.934,1.355
			c2.487-2.584,5.293-4.866,8.537-6.704c3.652-2.07,7.55-3.62,11.657-4.524c4.42-0.974,9.56-2.176,14.085-1.519
			c0.487,0.072,0.54,0.724,0.112,0.919c-3.354,1.531-6.866,2.541-10.024,4.489c-1.133,0.699-2.26,1.409-3.364,2.146
			c3.588-1.404,7.487-2.071,11.313-2.318c5.279-0.34,11.831-1.353,16.38,2.013c0.222,0.163,0.222,0.465,0.075,0.672
			c-1.805,2.606-5.223,3.93-7.82,5.607c-2.957,1.906-5.895,3.839-8.893,5.679c4.946-1.531,9.503-4.146,14.402-5.848
			c0.354-0.122,0.837,0.243,0.617,0.633c-3.916,6.903-10.622,11.115-16.174,16.528c5.458-2.363,10.432-5.824,14.933-9.675
			c0.302-0.259,0.856,0.05,0.76,0.449c-1.387,5.661-5.187,10.427-9.491,14.222c-4.024,3.549-8.662,6.775-13.724,8.663
			c-2.698,1.004-5.794,1.871-8.982,2.35c2.058,0.408,4.18,0.627,6.403,0.588c4.424-0.077,8.991-1.803,13.06-3.399
			c4.431-1.737,8.691-3.823,12.617-6.523c0.688-0.472,1.347-0.97,1.991-1.478c0.076,0.817,0.171,1.638,0.303,2.461
			c0.751,4.704,2.177,9.23,3.974,13.637c1.647,4.047,3.548,8.546,6.541,11.803c2.185,2.376,4.613,4.235,7.217,5.769
			c-3.027-3.208-5.714-6.737-7.745-10.659c-2.941-5.675-4.291-11.933-4.357-18.303c-0.051-5.088-0.178-11.515,3.361-15.587
			c0.278-0.318,0.778-0.172,0.851,0.241c1.199,6.822,0.79,13.975,3.355,20.428c-0.728-4.905-1.527-9.854-1.096-14.806
			c0.362-4.172,0.709-9.16,3.936-12.213c0.244-0.231,0.601-0.035,0.728,0.207c1.909,3.606,2.108,7.809,3.891,11.471
			c1.066,2.192,2.332,4.275,3.406,6.449c-0.541-3.22-1.111-6.46-2.048-9.542c-0.885-2.911-2.372-6.089-1.682-9.188
			c0.043-0.193,0.19-0.406,0.414-0.41c4.504-0.068,8.184,4.881,10.659,8.076c2.985,3.857,5.238,7.825,7.078,12.174
			c-0.794-5.03-1.938-9.962-4.587-14.423c-0.26-0.438,0.246-1.04,0.684-0.659c6.925,6.048,12.177,14.618,13.963,23.695
			c0.887,4.493,0.508,8.783-0.405,13.013c0.508-1.171,0.962-2.256,1.336-3.181c0.234-0.921,0.441-1.852,0.617-2.788
			c1.374-7.256,1.233-14.964-0.206-22.25c-0.189-0.712-0.385-1.416-0.592-2.098c-0.227-0.752-0.48-1.493-0.734-2.233
			c2.057,0.344,4.16,0.529,6.316,0.527c4.761-0.005,9.457-0.706,14.089-1.788c4.256-0.995,8.997-2.166,12.683-4.612
			c4.245-2.819,7.311-6.436,9.904-10.48C288.328,251.599,280.987,254.361,273.357,255.52z"/>
		<path style="fill:#FFFFFF;" d="M225.782,243.53c-0.661-0.382-1.314-0.777-1.969-1.172c3.077,0.46,6.298,0.068,9.563-1.037
			c5.248-1.776,11.189-6.769,12.812-12.173c0.165-0.55-0.87-0.234-1.001,0.146c-1.824,5.279-7.758,9.518-12.867,11.222
			c-2.891,0.964-6.227,1.018-9.198,0.466c-1.201-0.223-2.606-1.018-3.632-1.591c3.174-1.498,6.796-5.477,7.85-6.718
			c5.791-6.823,8.65-14.408,11.98-22.589c0.165-0.4-0.655-0.17-0.778,0.113c-2.531,5.789-4.877,11.588-8.326,16.908
			c-1.556,2.401-3.565,4.57-5.453,6.718c-0.597,0.681-3.795,3.742-6.111,4.47c2.027-1.602,3.61-3.541,4.751-6.128
			c0.224-0.506-0.841-0.287-1.008,0.048c-0.732,1.474-1.675,2.757-2.745,4.004c-0.718,0.838-1.548,1.456-2.433,2.013
			c-0.015-0.02-0.018-0.046-0.039-0.063c-0.016-0.025-0.031-0.051-0.046-0.078c0.238-0.358,0.21-0.741-0.472-0.683
			c-0.332,0.028-0.635,0.145-0.877,0.363c-0.008-0.011-0.014-0.022-0.02-0.034c0.025-0.011,0.054-0.022,0.072-0.035
			c0.313-0.209,0.555-0.465,0.748-0.749c0.131-0.054,0.245-0.124,0.311-0.209c1.848-2.363,2.619-5.131,3.577-7.942
			c1.096-3.209,2.031-6.461,2.357-9.853c0.678-7.026,0.67-14.31-2.079-20.877c-0.134-0.324-0.887,0.063-0.76,0.399
			c3.789,9.935,2.31,22.701-1.794,32.922c0.514-2.067,0.879-4.065,1.031-6.281c0.411-5.982-1.283-12.333-4.117-17.571
			c-0.182-0.336-0.976,0.081-0.814,0.429c2.135,4.577,3.078,9.497,3.35,14.521c0.142,2.656-0.097,5.452-0.691,8.038
			c-0.421,1.829-0.84,4.456-1.703,6.27c-3.979-7.433-7.021-16.605-6.402-24.932c0.026-0.367-0.776-0.098-0.814,0.195
			c-0.585,4.504-0.184,9.208,1.097,13.562c1.072,3.642,2.213,7.679,4.024,11.167c-4.515-2.617-7.995-6.169-11.335-10.589
			c-3.594-4.756-6.439-9.868-7.268-15.837c-0.057-0.403-0.847-0.07-0.816,0.269c1.055,12.067,10.027,23.638,20.944,28.7
			c0.024,0.037,0.049,0.074,0.073,0.111c0.008,0.011,0.021,0.019,0.03,0.029c-5.055,1.96-12.149-0.78-16.842-2.547
			c-4.934-1.858-11.561-6.047-14.265-10.727c-0.218-0.378-1.133,0.111-0.92,0.486c3.008,5.334,9.56,9.585,15.129,11.767
			c4.107,1.608,9.692,3.524,14.49,2.83c-0.133,0.091-0.222,0.151-0.239,0.161c-1.856,1.103-4.196,1.405-6.301,1.643
			c-3.973,0.449-9.327,0.648-12.788-1.664c-0.302-0.202-1.084,0.299-0.739,0.563c3.839,2.926,9.749,2.517,14.275,2.038
			c2.938-0.31,6.389-1.457,8.834-3.467c-1.108,5.171-5.47,10.927-9.878,13.182c-0.625,0.32-0.299,0.913,0.324,0.615
			c2.947-1.407,5.688-4.115,7.528-6.784c0.913-1.326,3.026-4.218,3.696-6.656c2.175,5.958,1.264,11.426-1.689,17.359
			c-0.431,0.659,0.891,0.927,1.478,0.113c3.565-4.952,4.16-11.194,2.092-16.669c1.235,0.52,2.461,1.042,3.65,1.727
			c3.488,2.004,6.242,3.878,8.616,7.191c0.336,0.466,1.518-0.169,1.213-0.637C230.625,247.186,228.709,245.213,225.782,243.53z"/>
	</g>
	<g>
		<g>
			<path style="fill:#EEA19E;" d="M195.841,80.431c1.054,0.049,2.108,0.028,3.162-0.104c4.528-0.572,8.808-2.421,12.683-4.777
				c7.649-4.648,14.052-10.67,17.9-18.876c2.021-4.313,3.385-8.859,4.376-13.512c0.909-4.274,1.868-9.063,1.222-13.44
				c-1.091-7.391-4.81-13.217-9.16-18.996c-1.403,0.963-2.781,2.372-3.9,3.473c-1.504,1.477-3.118,2.792-4.797,4.029
				c-0.042-2.483-0.419-4.946-0.909-7.403c-0.351-1.767-0.197-4.427-1.175-6.102c-4.805,1.836-12.434,6.572-16.468,9.266
				c-0.712,0.63-1.405,1.285-2.078,1.959c-5.214,5.231-9.429,11.684-12.333,18.52c-0.245,0.696-0.478,1.388-0.691,2.068
				c-1.283,4.102-2.148,8.308-2.6,12.557c-0.074,4.374,0.572,8.771,1.773,13.001c2.07,7.29,5.577,14.351,12.492,17.7
				C195.5,80.013,195.667,80.226,195.841,80.431z"/>
			<path style="fill:#EEA19E;" d="M197.586,85.682c0.405,0.976,0.873,1.921,1.439,2.816c2.444,3.855,5.941,6.942,9.722,9.447
				c7.46,4.944,15.635,8.177,24.698,8.167c4.762-0.005,9.458-0.707,14.09-1.79c4.255-0.995,8.997-2.165,12.682-4.612
				c6.224-4.132,9.914-9.978,13.294-16.373c-1.47-0.86-3.33-1.506-4.804-2.053c-1.977-0.732-3.854-1.634-5.686-2.626
				c2.229-1.093,4.297-2.485,6.313-3.972c1.449-1.071,3.922-2.063,5.02-3.661c-3.704-3.567-11.236-8.456-15.392-10.96
				c-0.873-0.376-1.76-0.725-2.658-1.046c-6.951-2.492-14.586-3.563-22.007-3.281c-0.734,0.075-1.46,0.158-2.165,0.255
				c-4.257,0.583-8.433,1.59-12.47,2.99c-3.988,1.794-7.694,4.25-11.011,7.137c-5.716,4.975-10.613,11.153-10.703,18.835
				C197.819,85.195,197.697,85.438,197.586,85.682z"/>
			<path style="fill:#EEA19E;" d="M189.813,79.114c-0.938,0.486-1.905,0.908-2.915,1.227c-4.357,1.374-9.017,1.482-13.521,0.962
				c-8.892-1.026-17.228-3.819-24.151-9.666c-3.64-3.073-6.777-6.633-9.625-10.446c-2.614-3.502-5.484-7.453-6.727-11.699
				c-2.097-7.169-1.153-14.018,0.383-21.085c1.677,0.288,3.517,0.993,4.996,1.524c1.983,0.713,3.999,1.232,6.042,1.655
				c-1.002-2.272-1.686-4.669-2.27-7.105c-0.421-1.751-1.673-4.103-1.483-6.033c5.132-0.342,14.042,0.772,18.833,1.534
				c0.911,0.275,1.813,0.58,2.706,0.912c6.924,2.572,13.451,6.672,18.945,11.669c0.513,0.53,1.015,1.061,1.492,1.589
				c2.882,3.19,5.424,6.649,7.61,10.32c1.896,3.942,3.147,8.208,3.823,12.552c1.167,7.488,0.933,15.369-3.95,21.302
				C189.947,78.592,189.883,78.855,189.813,79.114z"/>
			<path style="fill:#EEA19E;" d="M194.212,78.811c0.22,1.033,0.371,2.077,0.413,3.137c0.174,4.562-0.953,9.086-2.645,13.295
				c-3.339,8.303-8.234,15.604-15.702,20.738c-3.926,2.699-8.188,4.786-12.618,6.523c-4.067,1.596-8.635,3.321-13.059,3.399
				c-7.47,0.128-13.826-2.591-20.235-5.94c0.72-1.542,1.887-3.13,2.789-4.415c1.212-1.725,2.244-3.532,3.191-5.389
				c-2.455,0.365-4.948,0.392-7.453,0.311c-1.8-0.058-4.396,0.529-6.208-0.164c1.025-5.041,4.452-13.34,6.453-17.76
				c0.506-0.805,1.038-1.595,1.595-2.369c4.309-5.997,9.988-11.209,16.259-15.19c0.646-0.354,1.292-0.697,1.927-1.019
				c3.837-1.936,7.848-3.477,11.966-4.613c4.303-0.787,8.747-0.868,13.116-0.372c7.528,0.854,15.067,3.162,19.5,9.438
				C193.744,78.543,193.98,78.674,194.212,78.811z"/>
			<path style="fill:#EEA19E;" d="M193.132,78.349c-0.899,0.552-1.76,1.162-2.556,1.863c-3.426,3.019-5.926,6.955-7.808,11.081
				c-3.715,8.142-5.628,16.722-4.198,25.672c0.75,4.703,2.179,9.229,3.975,13.636c1.648,4.048,3.549,8.546,6.542,11.803
				c5.057,5.501,11.407,8.229,18.252,10.564c0.619-1.585,0.967-3.524,1.275-5.065c0.413-2.067,1.01-4.061,1.703-6.027
				c1.429,2.032,3.128,3.855,4.912,5.612c1.283,1.265,2.65,3.552,4.401,4.387c2.942-4.219,6.591-12.423,8.413-16.919
				c0.235-0.921,0.439-1.852,0.618-2.789c1.371-7.256,1.233-14.963-0.207-22.25c-0.189-0.713-0.384-1.417-0.591-2.099
				c-1.243-4.113-2.891-8.079-4.907-11.846c-2.397-3.661-5.402-6.934-8.774-9.758c-5.809-4.866-12.678-8.736-20.278-7.62
				C193.649,78.503,193.392,78.42,193.132,78.349z"/>
		</g>
		<path style="fill:#EEA19E;" d="M249.905,98.339c-6.464,0.981-13.044,1.162-19.527,0.224c-4.332-0.628-9.624-1.384-12.758-4.758
			c-0.261-0.281,0.006-0.707,0.324-0.76c6.358-1.06,12.707-2.184,18.909-3.93c-3.358,0.106-6.714,0.238-10.082,0.169
			c-5.066-0.102-11.496,0.088-16.035-2.548c-5.089-2.954,1.5-7.944,4.027-9.789c7.072-5.158,15.313-8.027,23.918-8.897
			c-8.068-0.715-16.455,1.13-23.566,4.861c-0.443,0.234-0.824-0.389-0.552-0.744c5.296-6.835,14.554-10.93,22.765-12.884
			c4.818-1.145,9.814-1.465,14.694-0.475c3.437,0.699,6.722,1.84,9.96,3.133c-1.11-0.707-2.146-1.346-3.021-1.875
			c-0.873-0.376-1.76-0.725-2.658-1.046c-6.951-2.492-14.586-3.563-22.007-3.281c-0.734,0.075-1.46,0.158-2.165,0.255
			c-0.811,0.111-1.614,0.252-2.419,0.393c1.949-4.228,3.279-8.675,4.249-13.227c0.909-4.274,1.868-9.063,1.222-13.44
			c-0.165-1.115-0.396-2.19-0.672-3.24c-0.431,5.224-0.997,10.27-2.406,15.392c-2.094,7.613-5.441,17.641-12.933,21.574
			c-0.259,0.137-0.642-0.095-0.651-0.385c-0.121-3.554,1.635-6.713,2.606-10.041c0.949-3.244,1.592-7.092,1.541-10.654
			c-2.433,8.218-5.272,16.144-9.849,23.487c-2.75,4.416-7.063,11.312-13.008,11.339c-6.515,0.03-7.623-9.641-8.038-14.319
			c-0.661-7.441,0.691-14.458,2.757-21.449c-1.35,2.549-2.642,5.133-3.441,7.883c-1.338,4.604-1.793,9.39-2.867,14.054
			c-0.107,0.467-0.706,0.563-0.918,0.113c-2.523-5.357-1.927-11.934-1.56-17.675c0.445-6.986,1.584-14.256,5.123-20.418
			c2.405-4.191,5.688-8.761,9.628-12.525c-0.623,0.403-1.203,0.784-1.723,1.131c-0.712,0.63-1.405,1.285-2.078,1.959
			c-5.214,5.231-9.429,11.684-12.333,18.52c-0.155,0.445-0.296,0.881-0.441,1.32c-0.463-0.549-0.923-1.103-1.406-1.637
			c-0.478-0.528-0.98-1.059-1.492-1.589c-3.793-3.45-8.088-6.458-12.658-8.846c2.247,2.212,4.417,4.519,6.046,7.228
			c4.221,7.023,6.73,15.861,4.924,24.03c-0.693,3.138-1.838,6.529-4.694,8.332c-2.366,1.495-5.144,0.314-7.124-1.244
			c-1.921-1.511-3.77-3.175-5.515-4.961c0.119,0.235,0.236,0.469,0.358,0.702c0.886,1.714,4.235,6.979,1.776,8.609
			c-1.508,0.998-4.573-0.813-5.809-1.49c-2.747-1.506-5.147-3.419-7.347-5.648c-2.923-2.96-5.345-6.431-7.332-10.117
			c0.745,2.197,1.641,4.339,2.825,6.252c1.482,2.394,3.346,4.716,3.808,7.565c0.055,0.333-0.244,0.541-0.54,0.535
			c-3.06-0.075-5.642-2.35-7.599-4.494c-2.541-2.781-4.678-5.916-6.57-9.166c-2.007-3.442-3.537-6.931-3.821-10.964
			c-0.01-0.151-0.014-0.304-0.023-0.456c-0.215,3.652,0.045,7.313,1.142,11.062c1.243,4.246,4.113,8.197,6.727,11.699
			c2.848,3.813,5.985,7.372,9.625,10.446c0.566,0.479,1.146,0.929,1.732,1.368c-0.681,0.314-1.366,0.626-2.037,0.964
			c-0.635,0.321-1.28,0.664-1.927,1.019c-6.271,3.98-11.95,9.193-16.259,15.19c-0.322,0.446-0.631,0.899-0.934,1.356
			c2.485-2.585,5.293-4.866,8.536-6.704c3.653-2.071,7.55-3.62,11.657-4.525c4.42-0.974,9.56-2.176,14.084-1.518
			c0.489,0.071,0.542,0.723,0.114,0.919c-3.354,1.531-6.868,2.541-10.024,4.488c-1.135,0.7-2.26,1.41-3.364,2.147
			c3.586-1.405,7.487-2.07,11.312-2.318c5.28-0.341,11.832-1.353,16.381,2.013c0.222,0.162,0.22,0.464,0.075,0.672
			c-1.806,2.606-5.223,3.93-7.822,5.606c-2.955,1.906-5.894,3.84-8.891,5.679c4.944-1.531,9.503-4.145,14.401-5.847
			c0.353-0.123,0.838,0.241,0.618,0.633c-3.916,6.902-10.623,11.114-16.174,16.528c5.458-2.363,10.432-5.825,14.933-9.676
			c0.3-0.258,0.856,0.051,0.758,0.45c-1.387,5.661-5.186,10.426-9.491,14.221c-4.023,3.55-8.66,6.776-13.723,8.662
			c-2.697,1.005-5.793,1.872-8.981,2.351c2.058,0.407,4.179,0.626,6.403,0.588c4.424-0.078,8.991-1.803,13.059-3.399
			c4.43-1.737,8.692-3.824,12.618-6.523c0.688-0.473,1.347-0.97,1.991-1.478c0.075,0.816,0.17,1.637,0.301,2.461
			c0.75,4.703,2.179,9.229,3.975,13.636c1.648,4.048,3.549,8.546,6.542,11.803c2.185,2.378,4.613,4.235,7.217,5.77
			c-3.028-3.208-5.714-6.738-7.747-10.66c-2.939-5.675-4.289-11.932-4.355-18.302c-0.053-5.087-0.178-11.516,3.36-15.587
			c0.279-0.319,0.777-0.173,0.85,0.24c1.201,6.822,0.791,13.975,3.356,20.429c-0.727-4.906-1.528-9.854-1.097-14.807
			c0.363-4.17,0.71-9.16,3.935-12.213c0.247-0.231,0.601-0.034,0.73,0.207c1.91,3.606,2.108,7.81,3.89,11.471
			c1.066,2.192,2.334,4.276,3.408,6.45c-0.542-3.221-1.112-6.459-2.048-9.542c-0.885-2.912-2.372-6.09-1.685-9.189
			c0.044-0.192,0.193-0.406,0.417-0.409c4.502-0.068,8.185,4.881,10.657,8.075c2.985,3.857,5.24,7.825,7.079,12.174
			c-0.793-5.03-1.939-9.961-4.586-14.422c-0.26-0.438,0.246-1.041,0.684-0.659c6.925,6.047,12.176,14.617,13.963,23.695
			c0.885,4.492,0.508,8.782-0.405,13.013c0.506-1.171,0.96-2.257,1.335-3.181c0.235-0.921,0.439-1.852,0.618-2.789
			c1.371-7.256,1.233-14.963-0.207-22.25c-0.189-0.713-0.384-1.417-0.591-2.099c-0.228-0.751-0.482-1.492-0.735-2.233
			c2.056,0.344,4.159,0.53,6.316,0.528c4.762-0.005,9.458-0.707,14.09-1.79c4.255-0.995,8.997-2.165,12.682-4.612
			c4.246-2.818,7.311-6.436,9.905-10.48C264.874,94.417,257.534,97.18,249.905,98.339z"/>
		<path style="fill:#FFFFFF;" d="M202.33,86.348c-0.663-0.381-1.315-0.777-1.969-1.171c3.075,0.459,6.298,0.067,9.563-1.037
			c5.248-1.776,11.189-6.769,12.811-12.173c0.165-0.551-0.869-0.234-1,0.145c-1.824,5.28-7.76,9.519-12.867,11.222
			c-2.894,0.964-6.227,1.018-9.2,0.467c-1.199-0.223-2.604-1.018-3.632-1.591c3.176-1.498,6.796-5.476,7.851-6.718
			c5.792-6.822,8.649-14.407,11.979-22.589c0.165-0.4-0.653-0.169-0.776,0.113c-2.531,5.789-4.877,11.589-8.327,16.909
			c-1.557,2.401-3.567,4.569-5.452,6.718c-0.599,0.681-3.797,3.742-6.111,4.47c2.024-1.603,3.608-3.541,4.751-6.128
			c0.224-0.507-0.841-0.287-1.008,0.047c-0.731,1.474-1.677,2.757-2.745,4.004c-0.718,0.839-1.548,1.457-2.433,2.014
			c-0.016-0.021-0.019-0.046-0.04-0.063c-0.015-0.026-0.03-0.052-0.047-0.078c0.238-0.359,0.212-0.741-0.47-0.683
			c-0.332,0.027-0.635,0.145-0.878,0.363c-0.007-0.011-0.013-0.023-0.02-0.035c0.026-0.011,0.055-0.022,0.072-0.035
			c0.314-0.209,0.557-0.464,0.75-0.748c0.129-0.054,0.244-0.125,0.311-0.21c1.848-2.363,2.616-5.13,3.575-7.941
			c1.095-3.21,2.031-6.462,2.358-9.854c0.677-7.025,0.671-14.31-2.078-20.878c-0.137-0.323-0.889,0.063-0.76,0.4
			c3.787,9.935,2.31,22.701-1.794,32.923c0.514-2.067,0.879-4.065,1.03-6.281c0.411-5.983-1.282-12.332-4.116-17.571
			c-0.184-0.337-0.976,0.08-0.814,0.428c2.135,4.578,3.076,9.499,3.349,14.523c0.143,2.656-0.096,5.451-0.691,8.037
			c-0.42,1.83-0.839,4.456-1.703,6.27c-3.979-7.434-7.02-16.606-6.401-24.932c0.026-0.368-0.776-0.099-0.816,0.194
			c-0.584,4.504-0.182,9.209,1.099,13.562c1.072,3.643,2.211,7.679,4.025,11.167c-4.515-2.616-7.997-6.17-11.335-10.588
			c-3.595-4.756-6.439-9.869-7.27-15.838c-0.055-0.403-0.845-0.069-0.814,0.269c1.055,12.068,10.027,23.638,20.941,28.7
			c0.027,0.037,0.052,0.075,0.076,0.111c0.008,0.012,0.02,0.019,0.028,0.029c-5.053,1.96-12.149-0.779-16.842-2.546
			c-4.934-1.859-11.559-6.047-14.263-10.728c-0.218-0.379-1.133,0.111-0.921,0.485c3.009,5.334,9.561,9.585,15.13,11.767
			c4.105,1.608,9.692,3.524,14.489,2.83c-0.132,0.091-0.224,0.151-0.238,0.161c-1.858,1.103-4.198,1.405-6.304,1.643
			c-3.971,0.449-9.324,0.648-12.786-1.665c-0.301-0.201-1.085,0.299-0.738,0.563c3.838,2.927,9.749,2.517,14.273,2.039
			c2.94-0.311,6.39-1.458,8.836-3.467c-1.108,5.171-5.47,10.926-9.878,13.182c-0.625,0.32-0.302,0.913,0.324,0.615
			c2.947-1.408,5.686-4.115,7.526-6.784c0.915-1.326,3.027-4.219,3.696-6.657c2.177,5.959,1.266,11.426-1.689,17.359
			c-0.431,0.659,0.892,0.927,1.478,0.113c3.567-4.951,4.16-11.194,2.094-16.668c1.232,0.52,2.459,1.042,3.65,1.726
			c3.485,2.005,6.242,3.879,8.616,7.191c0.333,0.466,1.516-0.168,1.213-0.637C207.17,90.004,205.257,88.032,202.33,86.348z"/>
	</g>
	<g>
		<g>
			<path style="fill:#EEA19E;" d="M307.61,150.292c0.858-0.406,1.688-0.867,2.467-1.417c3.355-2.364,5.974-5.637,8.058-9.143
				c4.113-6.917,6.659-14.4,6.252-22.539c-0.214-4.278-1.05-8.463-2.224-12.576c-1.08-3.778-2.34-7.984-4.699-11.188
				c-3.983-5.409-9.395-8.466-15.286-11.22c-0.707,1.358-1.207,3.057-1.634,4.404c-0.57,1.808-1.298,3.532-2.108,5.222
				c-1.08-1.955-2.419-3.75-3.844-5.496c-1.023-1.255-2.023-3.431-3.507-4.348c-3.041,3.484-7.101,10.462-9.168,14.303
				c-0.301,0.801-0.574,1.612-0.824,2.432c-1.934,6.353-2.56,13.256-1.981,19.91c0.099,0.655,0.207,1.303,0.324,1.932
				c0.71,3.799,1.796,7.503,3.231,11.068c1.785,3.505,4.153,6.724,6.893,9.576c4.718,4.915,10.482,9.042,17.385,8.786
				C307.164,150.105,307.388,150.203,307.61,150.292z"/>
			<path style="fill:#EEA19E;" d="M311.212,153.726c0.733,0.604,1.505,1.158,2.333,1.629c3.567,2.03,7.644,3.007,11.702,3.401
				c8.01,0.779,15.865-0.102,23.059-3.932c3.777-2.013,7.21-4.55,10.433-7.363c2.96-2.584,6.229-5.514,8.124-9.012
				c3.2-5.906,3.666-12.104,3.65-18.608c-1.528-0.063-3.281,0.209-4.681,0.397c-1.878,0.251-3.748,0.327-5.621,0.313
				c1.309-1.809,2.362-3.786,3.336-5.817c0.701-1.461,2.245-3.291,2.444-5.023c-4.447-1.27-12.491-1.975-16.847-2.211
				c-0.853,0.069-1.701,0.166-2.55,0.29c-6.572,0.952-13.086,3.323-18.86,6.676c-0.551,0.37-1.093,0.742-1.612,1.116
				c-3.134,2.258-6.024,4.82-8.639,7.635c-2.412,3.106-4.317,6.62-5.735,10.311c-2.44,6.362-3.723,13.334-0.553,19.471
				C311.193,153.241,311.199,153.486,311.212,153.726z"/>
			<path style="fill:#EEA19E;" d="M302.271,151.79c-0.542,0.781-1.132,1.524-1.8,2.203c-2.878,2.927-6.534,4.98-10.331,6.467
				c-7.493,2.937-15.289,4.233-23.254,2.512c-4.187-0.905-8.181-2.408-12.047-4.235c-3.555-1.679-7.501-3.605-10.278-6.452
				c-4.69-4.809-6.827-10.645-8.59-16.904c1.453-0.479,3.212-0.696,4.609-0.897c1.876-0.271,3.696-0.709,5.496-1.234
				c-1.754-1.383-3.308-2.996-4.799-4.685c-1.074-1.213-3.06-2.553-3.723-4.165c3.932-2.437,11.478-5.31,15.602-6.726
				c0.839-0.166,1.685-0.305,2.533-0.418c6.583-0.877,13.496-0.375,19.967,1.274c0.631,0.206,1.254,0.415,1.854,0.633
				c3.634,1.317,7.112,2.992,10.396,4.985c3.168,2.33,5.961,5.191,8.331,8.355c4.084,5.453,7.222,11.81,5.848,18.581
				C302.154,151.318,302.215,151.554,302.271,151.79z"/>
			<path style="fill:#EEA19E;" d="M305.635,149.694c0.61,0.727,1.171,1.493,1.65,2.317c2.063,3.548,3.076,7.617,3.509,11.671
				c0.853,8.001,0.043,15.865-3.721,23.091c-1.98,3.798-4.483,7.253-7.268,10.502c-2.558,2.983-5.458,6.28-8.936,8.207
				c-5.879,3.254-12.072,3.775-18.574,3.819c-0.078-1.528,0.176-3.281,0.353-4.682c0.234-1.88,0.293-3.751,0.262-5.626
				c-1.797,1.326-3.765,2.398-5.786,3.39c-1.453,0.713-3.271,2.274-5,2.49c-1.313-4.435-2.092-12.472-2.366-16.825
				c0.061-0.853,0.149-1.705,0.266-2.554c0.892-6.58,3.203-13.115,6.506-18.92c0.361-0.554,0.729-1.098,1.099-1.621
				c2.231-3.156,4.765-6.07,7.556-8.71c3.086-2.44,6.581-4.378,10.259-5.828c6.339-2.499,13.297-3.846,19.466-0.732
				C305.149,149.679,305.395,149.682,305.635,149.694z"/>
			<path style="fill:#EEA19E;" d="M304.581,149.782c-0.48,0.817-0.907,1.665-1.242,2.559c-1.445,3.841-1.773,8.02-1.527,12.091
				c0.485,8.032,2.586,15.653,7.497,22.156c2.58,3.419,5.623,6.41,8.906,9.152c3.016,2.519,6.422,5.29,10.173,6.613
				c6.336,2.235,12.531,1.723,18.949,0.69c-0.176-1.52-0.718-3.207-1.123-4.561c-0.544-1.815-0.911-3.65-1.189-5.504
				c1.991,1.011,4.108,1.742,6.267,2.385c1.554,0.463,3.604,1.702,5.347,1.626c0.557-4.591-0.008-12.645-0.457-16.983
				c-0.202-0.831-0.43-1.656-0.686-2.474c-1.971-6.342-5.333-12.403-9.549-17.581c-0.45-0.486-0.901-0.962-1.354-1.417
				c-2.721-2.742-5.704-5.197-8.893-7.337c-3.446-1.896-7.217-3.228-11.083-4.048c-6.665-1.414-13.753-1.588-19.318,2.503
				C305.059,149.685,304.818,149.73,304.581,149.782z"/>
		</g>
		<path style="fill:#EEA19E;" d="M358.097,141.708c-4.72,3.506-9.867,6.425-15.41,8.415c-3.706,1.329-8.228,2.961-12.141,1.604
			c-0.324-0.113-0.292-0.563-0.06-0.741c4.6-3.523,9.17-7.093,13.356-11.096c-2.622,1.501-5.232,3.02-7.935,4.388
			c-4.065,2.056-9.092,4.918-13.809,4.74c-5.286-0.2-2.16-6.942-0.931-9.473c3.44-7.079,8.775-12.833,15.239-17.153
			c-6.708,2.835-12.589,7.837-16.662,13.8c-0.254,0.373-0.818,0.039-0.75-0.358c1.32-7.662,6.943-14.818,12.643-19.833
			c3.34-2.941,7.172-5.303,11.467-6.574c3.024-0.895,6.114-1.374,9.229-1.713c-1.179-0.093-2.27-0.165-3.188-0.214
			c-0.853,0.069-1.701,0.166-2.55,0.29c-6.572,0.952-13.086,3.323-18.86,6.676c-0.551,0.37-1.093,0.742-1.612,1.116
			c-0.597,0.43-1.175,0.882-1.754,1.333c-0.235-4.18-1.056-8.273-2.205-12.296c-1.08-3.778-2.34-7.984-4.699-11.188
			c-0.601-0.815-1.236-1.572-1.899-2.288c1.862,4.33,3.539,8.575,4.581,13.237c1.549,6.928,3.122,16.302-1.169,22.585
			c-0.148,0.218-0.55,0.196-0.681-0.03c-1.593-2.771-1.532-6.021-2.163-9.073c-0.616-2.976-1.729-6.303-3.272-9.11
			c1.537,7.552,2.622,15.045,2.088,22.805c-0.322,4.667-0.839,11.961-5.547,14.49c-5.161,2.771-10.121-4.44-12.423-7.98
			c-3.664-5.628-5.549-11.771-6.858-18.194c0.006,2.593,0.068,5.19,0.594,7.711c0.881,4.221,2.538,8.213,3.65,12.37
			c0.111,0.416-0.322,0.745-0.682,0.477c-4.261-3.191-6.563-8.664-8.692-13.378c-2.594-5.736-4.756-11.989-4.545-18.374
			c0.142-4.343,0.822-9.356,2.362-14.007c-0.326,0.584-0.625,1.131-0.891,1.625c-0.301,0.801-0.574,1.612-0.824,2.432
			c-1.934,6.353-2.56,13.256-1.981,19.91c0.064,0.418,0.137,0.824,0.207,1.234c-0.6-0.242-1.198-0.486-1.808-0.707
			c-0.601-0.218-1.224-0.427-1.854-0.633c-4.468-1.139-9.148-1.717-13.783-1.685c2.717,0.809,5.413,1.725,7.849,3.19
			c6.314,3.795,12.034,9.755,14.047,17.003c0.772,2.784,1.294,5.96-0.213,8.597c-1.248,2.185-3.953,2.419-6.182,2.017
			c-2.163-0.389-4.333-0.93-6.472-1.612c0.193,0.136,0.385,0.272,0.58,0.406c1.427,0.987,6.307,3.754,5.041,6.087
			c-0.775,1.428-3.973,1.284-5.24,1.267c-2.817-0.038-5.53-0.546-8.217-1.387c-3.569-1.119-6.955-2.853-10.088-4.942
			c1.518,1.431,3.132,2.754,4.88,3.774c2.186,1.276,4.646,2.334,6.214,4.402c0.185,0.24,0.034,0.532-0.202,0.651
			c-2.463,1.231-5.472,0.515-7.931-0.363c-3.191-1.137-6.208-2.724-9.082-4.507c-3.045-1.888-5.733-4.013-7.658-7.095
			c-0.072-0.116-0.14-0.235-0.21-0.352c1.367,2.991,3.12,5.788,5.571,8.303c2.777,2.847,6.724,4.773,10.278,6.452
			c3.866,1.827,7.86,3.331,12.047,4.235c0.652,0.14,1.302,0.254,1.951,0.355c-0.409,0.537-0.82,1.073-1.21,1.625
			c-0.37,0.523-0.737,1.067-1.099,1.621c-3.303,5.806-5.614,12.341-6.506,18.92c-0.066,0.49-0.122,0.98-0.171,1.47
			c0.885-3.101,2.152-6.097,3.952-8.924c2.027-3.185,4.469-6.06,7.349-8.509c3.1-2.638,6.673-5.76,10.543-7.146
			c0.419-0.15,0.735,0.346,0.478,0.682c-2.016,2.629-4.38,4.913-6.066,7.792c-0.604,1.034-1.199,2.073-1.766,3.124
			c2.257-2.628,5.072-4.803,8.005-6.613c4.048-2.497,8.824-6.064,13.857-5.311c0.242,0.036,0.371,0.276,0.343,0.503
			c-0.333,2.83-2.489,5.323-3.846,7.751c-1.544,2.759-3.061,5.535-4.665,8.259c3.28-3.301,5.798-7.3,8.969-10.719
			c0.229-0.246,0.768-0.161,0.758,0.243c-0.198,7.132-3.747,13.306-5.871,19.946c3.337-4.179,5.826-9.025,7.775-13.982
			c0.131-0.332,0.701-0.32,0.794,0.037c1.284,5.08,0.278,10.466-1.54,15.296c-1.697,4.515-4.019,9.033-7.243,12.667
			c-1.718,1.935-3.812,3.929-6.14,5.655c1.805-0.544,3.582-1.266,5.333-2.235c3.478-1.927,6.379-5.224,8.936-8.207
			c2.784-3.248,5.287-6.703,7.268-10.502c0.347-0.665,0.659-1.337,0.956-2.013c0.405,0.617,0.826,1.228,1.279,1.826
			c2.58,3.419,5.623,6.41,8.906,9.152c3.016,2.519,6.422,5.29,10.173,6.613c2.738,0.966,5.451,1.417,8.166,1.537
			c-3.759-1.27-7.381-2.939-10.647-5.196c-4.73-3.266-8.441-7.665-11.18-12.696c-2.189-4.018-5-9.069-3.904-13.795
			c0.085-0.37,0.542-0.465,0.774-0.167c3.831,4.912,6.521,10.764,11.28,14.806c-2.647-3.588-5.369-7.179-7.116-11.295
			c-1.47-3.465-3.298-7.572-2.026-11.356c0.098-0.287,0.464-0.282,0.666-0.144c3.037,2.059,4.97,5.313,7.929,7.469
			c1.771,1.29,3.657,2.41,5.427,3.684c-1.789-2.328-3.609-4.66-5.652-6.713c-1.93-1.939-4.452-3.835-5.211-6.587
			c-0.048-0.171-0.02-0.404,0.157-0.5c3.546-1.954,8.558,0.424,11.869,1.917c3.997,1.803,7.46,4.003,10.755,6.681
			c-2.753-3.659-5.74-7.092-9.725-9.518c-0.392-0.238-0.242-0.93,0.264-0.811c8.05,1.88,15.836,6.471,21.082,12.924
			c2.6,3.194,4.108,6.761,5.166,10.504c-0.091-1.143-0.188-2.198-0.28-3.089c-0.202-0.831-0.43-1.656-0.686-2.474
			c-1.971-6.342-5.333-12.403-9.549-17.581c-0.45-0.486-0.901-0.962-1.354-1.417c-0.498-0.501-1.012-0.982-1.524-1.463
			c1.776-0.595,3.525-1.334,5.238-2.245c3.777-2.013,7.21-4.55,10.433-7.363c2.96-2.584,6.229-5.514,8.124-9.012
			c2.185-4.029,3.092-8.194,3.446-12.499C368.329,132.28,363.664,137.571,358.097,141.708z"/>
		<path style="fill:#FFFFFF;" d="M315.261,152.254c-0.688-0.023-1.371-0.062-2.058-0.1c2.636-0.932,5.028-2.602,7.158-4.857
			c3.416-3.625,6.028-10.094,5.037-15.07c-0.103-0.507-0.79,0.181-0.733,0.537c0.777,4.962-2.148,10.832-5.484,14.339
			c-1.891,1.986-4.517,3.435-7.108,4.251c-1.048,0.33-2.499,0.292-3.554,0.269c1.887-2.528,3.084-7.214,3.398-8.646
			c1.723-7.86,0.792-15.088-0.013-22.99c-0.04-0.387-0.592,0.141-0.57,0.418c0.43,5.664,1.015,11.259,0.519,16.938
			c-0.224,2.563-0.905,5.133-1.496,7.635c-0.189,0.793-1.435,4.573-2.967,6.128c0.934-2.126,1.371-4.334,1.188-6.87
			c-0.036-0.496-0.788,0.127-0.78,0.462c0.041,1.48-0.167,2.897-0.491,4.338c-0.216,0.969-0.615,1.81-1.082,2.625
			c-0.021-0.009-0.034-0.029-0.059-0.034c-0.022-0.013-0.045-0.028-0.07-0.042c0.04-0.386-0.144-0.677-0.661-0.344
			c-0.252,0.162-0.443,0.383-0.543,0.657c-0.012-0.006-0.021-0.011-0.03-0.018c0.015-0.02,0.032-0.041,0.041-0.059
			c0.163-0.298,0.246-0.604,0.28-0.91c0.08-0.099,0.142-0.203,0.157-0.298c0.471-2.655-0.085-5.178-0.509-7.814
			c-0.483-3.01-1.112-5.987-2.283-8.819c-2.427-5.864-5.504-11.645-10.458-15.701c-0.244-0.2-0.678,0.423-0.434,0.637
			c7.199,6.291,11.408,17.053,12.462,26.899c-0.464-1.857-1.018-3.598-1.832-5.422c-2.197-4.924-6.218-9.252-10.68-12.216
			c-0.288-0.19-0.74,0.475-0.466,0.684c3.626,2.735,6.451,6.244,8.785,10.119c1.233,2.049,2.223,4.371,2.842,6.675
			c0.438,1.629,1.213,3.891,1.292,5.697c-6.296-4.225-12.58-10.226-15.602-17.097c-0.133-0.304-0.657,0.249-0.564,0.498
			c1.436,3.822,3.738,7.389,6.593,10.305c2.388,2.44,4.996,5.165,7.906,7.171c-4.689-0.173-8.952-1.526-13.469-3.627
			c-4.859-2.261-9.275-5.12-12.45-9.512c-0.215-0.295-0.703,0.302-0.534,0.559c5.928,9.137,17.934,14.54,28.735,13.955
			c0.034,0.019,0.07,0.039,0.104,0.057c0.012,0.007,0.026,0.007,0.036,0.012c-3.187,3.687-9.975,4.505-14.447,5.081
			c-4.702,0.605-11.729,0.074-15.85-2.503c-0.334-0.208-0.853,0.566-0.527,0.775c4.64,2.966,11.635,3.578,16.978,2.961
			c3.939-0.455,9.183-1.291,12.698-3.864c-0.065,0.128-0.113,0.214-0.121,0.229c-1.01,1.659-2.741,2.886-4.311,3.962
			c-2.965,2.033-7.131,4.449-10.855,4.072c-0.326-0.033-0.735,0.694-0.351,0.758c4.283,0.705,8.804-2.113,12.194-4.402
			c2.204-1.486,4.46-3.853,5.556-6.48c1.299,4.574,0.263,10.985-2.285,14.634c-0.362,0.518,0.148,0.852,0.518,0.352
			c1.746-2.36,2.779-5.667,3.116-8.562c0.167-1.438,0.623-4.626,0.127-6.845c4.24,3.813,5.823,8.54,5.979,14.497
			c-0.063,0.705,1.1,0.36,1.223-0.534c0.744-5.436-1.417-10.643-5.369-14.118c1.199-0.107,2.393-0.21,3.626-0.168
			c3.616,0.121,6.593,0.447,9.876,2.076c0.463,0.229,1.133-0.773,0.693-1.018C320.647,153.115,318.294,152.356,315.261,152.254z"/>
	</g>
	<g>
		<g>
			<path style="fill:#EEA19E;" d="M332.638,239.076c0.655-0.31,1.288-0.662,1.883-1.082c2.562-1.805,4.561-4.304,6.149-6.979
				c3.142-5.279,5.084-10.991,4.773-17.203c-0.162-3.265-0.801-6.459-1.697-9.599c-0.824-2.883-1.786-6.094-3.586-8.54
				c-3.041-4.128-7.171-6.462-11.669-8.564c-0.54,1.036-0.921,2.334-1.246,3.362c-0.436,1.379-0.991,2.695-1.608,3.985
				c-0.826-1.492-1.848-2.861-2.935-4.194c-0.783-0.958-1.545-2.619-2.678-3.319c-2.32,2.659-5.42,7.987-6.998,10.918
				c-0.229,0.611-0.438,1.23-0.629,1.855c-1.476,4.849-1.953,10.118-1.512,15.196c0.075,0.501,0.157,0.996,0.246,1.476
				c0.544,2.9,1.372,5.728,2.467,8.449c1.364,2.674,3.171,5.132,5.261,7.308c3.602,3.753,8.003,6.903,13.272,6.707
				C332.297,238.932,332.467,239.007,332.638,239.076z"/>
			<path style="fill:#EEA19E;" d="M335.387,241.697c0.559,0.46,1.148,0.884,1.78,1.243c2.723,1.549,5.836,2.296,8.934,2.596
				c6.113,0.595,12.107-0.078,17.598-3.002c2.886-1.536,5.506-3.473,7.965-5.62c2.258-1.972,4.755-4.208,6.201-6.879
				c2.441-4.508,2.798-9.239,2.786-14.203c-1.167-0.048-2.504,0.159-3.573,0.303c-1.432,0.192-2.86,0.25-4.291,0.239
				c1.001-1.381,1.804-2.889,2.549-4.441c0.534-1.114,1.712-2.511,1.864-3.835c-3.393-0.969-9.533-1.507-12.858-1.687
				c-0.65,0.053-1.3,0.127-1.947,0.221c-5.016,0.728-9.988,2.537-14.395,5.097c-0.422,0.282-0.835,0.566-1.232,0.852
				c-2.393,1.723-4.598,3.678-6.595,5.827c-1.839,2.372-3.294,5.054-4.376,7.871c-1.862,4.855-2.842,10.177-0.423,14.862
				C335.371,241.326,335.377,241.513,335.387,241.697z"/>
			<path style="fill:#EEA19E;" d="M328.561,240.218c-0.413,0.597-0.864,1.164-1.373,1.682c-2.196,2.235-4.987,3.801-7.886,4.937
				c-5.72,2.241-11.67,3.231-17.75,1.917c-3.193-0.69-6.242-1.837-9.195-3.233c-2.712-1.281-5.724-2.751-7.844-4.924
				c-3.581-3.671-5.212-8.125-6.557-12.904c1.108-0.366,2.451-0.53,3.518-0.684c1.433-0.207,2.821-0.541,4.194-0.943
				c-1.337-1.055-2.525-2.287-3.662-3.576c-0.82-0.927-2.336-1.949-2.842-3.179c3.001-1.859,8.761-4.053,11.909-5.134
				c0.641-0.126,1.285-0.233,1.935-0.318c5.024-0.67,10.301-0.287,15.239,0.973c0.481,0.156,0.957,0.316,1.416,0.482
				c2.773,1.006,5.43,2.284,7.936,3.806c2.418,1.778,4.551,3.961,6.358,6.376c3.118,4.163,5.513,9.016,4.463,14.184
				C328.474,239.858,328.519,240.038,328.561,240.218z"/>
			<path style="fill:#EEA19E;" d="M331.13,238.618c0.466,0.555,0.894,1.14,1.26,1.769c1.574,2.709,2.349,5.814,2.679,8.909
				c0.649,6.108,0.032,12.11-2.842,17.625c-1.51,2.9-3.422,5.536-5.547,8.016c-1.952,2.276-4.166,4.794-6.822,6.264
				c-4.486,2.484-9.214,2.881-14.177,2.916c-0.06-1.167,0.136-2.505,0.271-3.575c0.178-1.435,0.224-2.863,0.199-4.294
				c-1.372,1.013-2.874,1.831-4.416,2.588c-1.11,0.544-2.497,1.736-3.817,1.9c-1.003-3.385-1.596-9.519-1.806-12.842
				c0.045-0.651,0.115-1.302,0.202-1.95c0.683-5.021,2.446-10.011,4.966-14.442c0.276-0.422,0.557-0.838,0.839-1.237
				c1.703-2.409,3.638-4.633,5.768-6.647c2.354-1.863,5.022-3.342,7.83-4.45c4.839-1.907,10.148-2.934,14.858-0.558
				C330.76,238.607,330.945,238.61,331.13,238.618z"/>
			<path style="fill:#EEA19E;" d="M330.326,238.686c-0.367,0.624-0.693,1.272-0.949,1.953c-1.105,2.932-1.353,6.122-1.165,9.229
				c0.369,6.129,1.973,11.947,5.722,16.911c1.969,2.609,4.291,4.893,6.798,6.985c2.304,1.923,4.902,4.037,7.766,5.048
				c4.835,1.706,9.564,1.315,14.465,0.527c-0.135-1.161-0.55-2.448-0.858-3.481c-0.415-1.386-0.695-2.786-0.908-4.201
				c1.52,0.771,3.136,1.329,4.784,1.819c1.184,0.354,2.749,1.3,4.079,1.242c0.426-3.505-0.004-9.652-0.347-12.963
				c-0.155-0.635-0.33-1.265-0.523-1.889c-1.506-4.84-4.071-9.466-7.29-13.42c-0.343-0.37-0.688-0.734-1.034-1.081
				c-2.076-2.094-4.352-3.967-6.788-5.601c-2.63-1.447-5.506-2.463-8.459-3.089c-5.087-1.08-10.496-1.213-14.745,1.91
				C330.69,238.613,330.506,238.645,330.326,238.686z"/>
		</g>
		<path style="fill:#EEA19E;" d="M371.172,232.523c-3.601,2.676-7.53,4.904-11.761,6.422c-2.828,1.015-6.282,2.26-9.267,1.224
			c-0.248-0.086-0.223-0.43-0.047-0.564c3.513-2.69,6.998-5.414,10.194-8.471c-2.001,1.146-3.993,2.306-6.055,3.35
			c-3.105,1.569-6.941,3.754-10.541,3.618c-4.036-0.152-1.648-5.298-0.711-7.23c2.628-5.404,6.699-9.796,11.635-13.094
			c-5.123,2.165-9.611,5.983-12.719,10.534c-0.194,0.285-0.627,0.029-0.573-0.273c1.006-5.848,5.301-11.31,9.648-15.138
			c2.55-2.245,5.476-4.047,8.753-5.019c2.308-0.683,4.666-1.049,7.046-1.308c-0.902-0.07-1.733-0.126-2.435-0.163
			c-0.65,0.053-1.3,0.127-1.947,0.221c-5.016,0.728-9.988,2.537-14.395,5.097c-0.422,0.282-0.835,0.566-1.232,0.852
			c-0.454,0.328-0.896,0.673-1.339,1.017c-0.179-3.19-0.806-6.313-1.683-9.385c-0.824-2.883-1.786-6.094-3.586-8.54
			c-0.459-0.622-0.943-1.2-1.451-1.746c1.423,3.304,2.703,6.544,3.497,10.103c1.182,5.289,2.383,12.444-0.893,17.24
			c-0.111,0.167-0.421,0.15-0.518-0.023c-1.217-2.115-1.171-4.595-1.652-6.926c-0.47-2.27-1.318-4.811-2.497-6.953
			c1.173,5.764,2.003,11.483,1.594,17.407c-0.245,3.561-0.639,9.13-4.232,11.061c-3.941,2.115-7.727-3.39-9.484-6.091
			c-2.795-4.297-4.234-8.986-5.234-13.888c0.004,1.98,0.053,3.962,0.452,5.886c0.673,3.222,1.939,6.268,2.787,9.44
			c0.087,0.318-0.246,0.568-0.519,0.364c-3.253-2.435-5.012-6.613-6.637-10.211c-1.978-4.378-3.63-9.151-3.469-14.025
			c0.109-3.314,0.627-7.141,1.803-10.691c-0.248,0.445-0.477,0.863-0.68,1.24c-0.229,0.611-0.438,1.23-0.629,1.855
			c-1.476,4.849-1.953,10.118-1.512,15.196c0.049,0.32,0.104,0.63,0.157,0.942c-0.457-0.184-0.913-0.371-1.379-0.54
			c-0.459-0.165-0.935-0.326-1.416-0.482c-3.41-0.87-6.983-1.31-10.52-1.287c2.072,0.618,4.13,1.317,5.99,2.436
			c4.819,2.897,9.185,7.446,10.721,12.979c0.59,2.125,0.987,4.549-0.163,6.562c-0.952,1.668-3.016,1.846-4.717,1.54
			c-1.65-0.297-3.308-0.71-4.941-1.23c0.148,0.104,0.296,0.208,0.443,0.31c1.09,0.754,4.814,2.867,3.848,4.646
			c-0.591,1.091-3.033,0.98-3.999,0.968c-2.15-0.03-4.221-0.417-6.273-1.059c-2.723-0.853-5.309-2.177-7.699-3.771
			c1.157,1.091,2.391,2.102,3.725,2.879c1.669,0.974,3.546,1.782,4.743,3.36c0.141,0.184,0.025,0.407-0.155,0.497
			c-1.879,0.941-4.175,0.393-6.053-0.277c-2.435-0.868-4.74-2.079-6.932-3.44c-2.325-1.44-4.377-3.063-5.847-5.416
			c-0.056-0.088-0.107-0.179-0.159-0.269c1.044,2.283,2.381,4.418,4.253,6.338c2.12,2.173,5.132,3.643,7.844,4.924
			c2.953,1.396,6.002,2.542,9.195,3.233c0.499,0.107,0.995,0.194,1.491,0.271c-0.313,0.41-0.627,0.819-0.925,1.241
			c-0.282,0.399-0.563,0.815-0.839,1.237c-2.52,4.431-4.283,9.42-4.966,14.442c-0.051,0.374-0.093,0.748-0.131,1.123
			c0.677-2.367,1.645-4.654,3.019-6.812c1.546-2.432,3.41-4.625,5.607-6.496c2.364-2.014,5.095-4.397,8.048-5.454
			c0.318-0.115,0.561,0.264,0.364,0.52c-1.538,2.007-3.342,3.751-4.631,5.948c-0.462,0.789-0.915,1.582-1.347,2.384
			c1.723-2.005,3.871-3.665,6.11-5.047c3.09-1.906,6.734-4.628,10.575-4.054c0.186,0.028,0.284,0.21,0.263,0.384
			c-0.256,2.161-1.901,4.063-2.936,5.917c-1.178,2.106-2.336,4.225-3.56,6.304c2.505-2.521,4.426-5.572,6.845-8.182
			c0.177-0.188,0.588-0.123,0.58,0.186c-0.151,5.443-2.86,10.157-4.482,15.224c2.546-3.189,4.446-6.888,5.936-10.672
			c0.099-0.253,0.534-0.244,0.604,0.028c0.981,3.878,0.212,7.989-1.175,11.676c-1.296,3.446-3.067,6.895-5.528,9.667
			c-1.311,1.478-2.908,2.999-4.687,4.317c1.379-0.415,2.735-0.965,4.069-1.705c2.656-1.47,4.87-3.988,6.822-6.264
			c2.125-2.48,4.037-5.116,5.547-8.016c0.266-0.507,0.504-1.022,0.731-1.537c0.309,0.471,0.631,0.937,0.976,1.395
			c1.969,2.609,4.291,4.893,6.798,6.985c2.304,1.923,4.902,4.037,7.766,5.048c2.089,0.737,4.16,1.082,6.232,1.173
			c-2.868-0.969-5.634-2.243-8.127-3.966c-3.609-2.492-6.443-5.85-8.533-9.69c-1.671-3.067-3.815-6.922-2.98-10.53
			c0.064-0.283,0.413-0.355,0.592-0.129c2.923,3.75,4.979,8.217,8.61,11.302c-2.019-2.738-4.1-5.48-5.432-8.621
			c-1.122-2.645-2.518-5.781-1.548-8.669c0.075-0.219,0.354-0.214,0.51-0.109c2.318,1.572,3.793,4.055,6.051,5.701
			c1.351,0.985,2.791,1.84,4.142,2.812c-1.364-1.778-2.755-3.557-4.314-5.124c-1.475-1.48-3.399-2.927-3.978-5.027
			c-0.036-0.131-0.014-0.309,0.121-0.383c2.705-1.491,6.532,0.324,9.058,1.464c3.054,1.376,5.696,3.056,8.211,5.099
			c-2.102-2.792-4.382-5.413-7.423-7.265c-0.3-0.182-0.186-0.71,0.201-0.62c6.143,1.436,12.087,4.939,16.094,9.866
			c1.982,2.439,3.134,5.16,3.942,8.018c-0.07-0.872-0.144-1.677-0.214-2.357c-0.155-0.635-0.33-1.265-0.523-1.889
			c-1.506-4.84-4.071-9.466-7.29-13.42c-0.343-0.37-0.688-0.734-1.034-1.081c-0.379-0.383-0.771-0.749-1.163-1.118
			c1.356-0.454,2.692-1.018,3.997-1.714c2.886-1.536,5.506-3.473,7.965-5.62c2.258-1.972,4.755-4.208,6.201-6.879
			c1.667-3.075,2.36-6.254,2.631-9.54C378.983,225.327,375.424,229.365,371.172,232.523z"/>
		<path style="fill:#FFFFFF;" d="M338.477,240.573c-0.524-0.018-1.048-0.047-1.57-0.077c2.012-0.712,3.838-1.985,5.464-3.708
			c2.607-2.766,4.602-7.705,3.844-11.502c-0.076-0.388-0.603,0.138-0.559,0.409c0.595,3.788-1.639,8.269-4.188,10.945
			c-1.441,1.516-3.446,2.622-5.424,3.245c-0.8,0.251-1.908,0.223-2.715,0.205c1.441-1.93,2.357-5.506,2.596-6.599
			c1.314-6.001,0.604-11.517-0.012-17.549c-0.028-0.295-0.451,0.109-0.434,0.319c0.328,4.324,0.774,8.594,0.396,12.928
			c-0.17,1.958-0.689,3.919-1.142,5.829c-0.143,0.605-1.096,3.49-2.265,4.677c0.713-1.623,1.048-3.308,0.906-5.244
			c-0.027-0.379-0.603,0.098-0.596,0.354c0.032,1.129-0.129,2.212-0.375,3.311c-0.165,0.739-0.47,1.381-0.826,2.003
			c-0.015-0.007-0.024-0.023-0.043-0.025c-0.02-0.011-0.036-0.022-0.054-0.032c0.029-0.295-0.111-0.517-0.505-0.263
			c-0.191,0.123-0.34,0.293-0.415,0.502c-0.008-0.005-0.016-0.01-0.023-0.014c0.012-0.016,0.025-0.032,0.032-0.045
			c0.123-0.228,0.188-0.461,0.215-0.695c0.061-0.075,0.105-0.154,0.119-0.226c0.357-2.027-0.064-3.953-0.389-5.965
			c-0.369-2.298-0.851-4.571-1.745-6.731c-1.851-4.476-4.2-8.889-7.98-11.985c-0.188-0.152-0.518,0.323-0.331,0.487
			c5.494,4.802,8.709,13.016,9.512,20.532c-0.355-1.419-0.778-2.746-1.398-4.139c-1.679-3.759-4.748-7.062-8.152-9.325
			c-0.22-0.145-0.566,0.363-0.356,0.523c2.768,2.087,4.924,4.766,6.705,7.723c0.941,1.564,1.697,3.335,2.169,5.094
			c0.335,1.244,0.927,2.971,0.987,4.348c-4.807-3.224-9.602-7.805-11.909-13.049c-0.101-0.232-0.502,0.19-0.43,0.38
			c1.095,2.918,2.853,5.64,5.031,7.866c1.822,1.863,3.811,3.943,6.034,5.475c-3.579-0.133-6.834-1.166-10.279-2.769
			c-3.71-1.726-7.082-3.908-9.503-7.26c-0.165-0.226-0.536,0.23-0.409,0.426c4.523,6.975,13.688,11.098,21.935,10.652
			c0.026,0.015,0.053,0.029,0.079,0.043c0.01,0.005,0.02,0.005,0.028,0.008c-2.433,2.815-7.615,3.439-11.027,3.879
			c-3.591,0.462-8.954,0.057-12.099-1.91c-0.256-0.159-0.651,0.432-0.403,0.591c3.542,2.264,8.881,2.731,12.96,2.26
			c3.005-0.347,7.008-0.984,9.692-2.95c-0.051,0.099-0.087,0.164-0.093,0.175c-0.771,1.266-2.092,2.203-3.291,3.025
			c-2.264,1.55-5.444,3.395-8.286,3.108c-0.248-0.026-0.561,0.529-0.268,0.579c3.27,0.537,6.72-1.614,9.309-3.361
			c1.681-1.135,3.403-2.94,4.238-4.947c0.993,3.492,0.203,8.384-1.743,11.171c-0.276,0.395,0.112,0.65,0.395,0.268
			c1.334-1.802,2.122-4.325,2.378-6.535c0.129-1.098,0.478-3.532,0.097-5.224c3.237,2.91,4.446,6.517,4.565,11.065
			c-0.049,0.538,0.837,0.275,0.932-0.407c0.568-4.15-1.081-8.124-4.1-10.776c0.917-0.083,1.828-0.161,2.771-0.13
			c2.76,0.093,5.031,0.341,7.538,1.585c0.353,0.175,0.865-0.589,0.53-0.776C342.588,241.23,340.794,240.651,338.477,240.573z"/>
	</g>
	<g>
		<g>
			<path style="fill:#EEA19E;" d="M203.294,162.071c0.655-0.31,1.288-0.662,1.884-1.082c2.561-1.804,4.56-4.303,6.151-6.979
				c3.139-5.279,5.081-10.991,4.772-17.203c-0.163-3.265-0.802-6.459-1.698-9.599c-0.824-2.883-1.786-6.095-3.586-8.54
				c-3.041-4.128-7.173-6.462-11.669-8.564c-0.541,1.037-0.922,2.335-1.246,3.361c-0.436,1.38-0.991,2.696-1.61,3.986
				c-0.824-1.492-1.848-2.863-2.935-4.194c-0.78-0.958-1.544-2.619-2.677-3.319c-2.321,2.659-5.421,7.986-6.999,10.918
				c-0.227,0.611-0.438,1.23-0.627,1.856c-1.476,4.849-1.953,10.118-1.514,15.196c0.076,0.501,0.159,0.996,0.248,1.476
				c0.542,2.899,1.372,5.727,2.467,8.448c1.362,2.675,3.17,5.132,5.26,7.309c3.602,3.753,8.002,6.903,13.27,6.707
				C202.955,161.927,203.126,162.001,203.294,162.071z"/>
			<path style="fill:#EEA19E;" d="M206.045,164.692c0.559,0.46,1.148,0.884,1.779,1.243c2.723,1.55,5.835,2.296,8.933,2.597
				c6.113,0.595,12.109-0.078,17.6-3.002c2.884-1.537,5.506-3.473,7.965-5.62c2.259-1.972,4.756-4.209,6.201-6.879
				c2.441-4.508,2.796-9.238,2.787-14.203c-1.169-0.048-2.505,0.159-3.573,0.303c-1.435,0.192-2.861,0.249-4.291,0.239
				c0.998-1.381,1.802-2.889,2.546-4.441c0.534-1.115,1.713-2.511,1.866-3.835c-3.396-0.969-9.535-1.507-12.86-1.687
				c-0.649,0.053-1.3,0.127-1.945,0.221c-5.017,0.728-9.988,2.537-14.396,5.097c-0.421,0.281-0.834,0.565-1.23,0.852
				c-2.393,1.723-4.601,3.678-6.595,5.827c-1.842,2.372-3.297,5.054-4.377,7.871c-1.862,4.856-2.844,10.178-0.422,14.863
				C206.028,164.32,206.033,164.508,206.045,164.692z"/>
			<path style="fill:#EEA19E;" d="M199.217,163.213c-0.411,0.597-0.861,1.163-1.371,1.683c-2.198,2.234-4.988,3.8-7.886,4.936
				c-5.719,2.241-11.672,3.232-17.749,1.917c-3.196-0.691-6.245-1.839-9.196-3.233c-2.713-1.281-5.726-2.751-7.846-4.924
				c-3.58-3.67-5.212-8.125-6.557-12.903c1.11-0.366,2.451-0.531,3.52-0.684c1.43-0.207,2.818-0.541,4.192-0.942
				c-1.338-1.055-2.523-2.287-3.662-3.576c-0.818-0.926-2.334-1.948-2.842-3.18c3.001-1.859,8.76-4.053,11.909-5.133
				c0.64-0.126,1.284-0.233,1.934-0.319c5.024-0.669,10.301-0.286,15.24,0.974c0.48,0.156,0.956,0.316,1.417,0.482
				c2.771,1.006,5.428,2.284,7.934,3.806c2.42,1.778,4.551,3.961,6.358,6.376c3.118,4.163,5.514,9.016,4.466,14.183
				C199.13,162.853,199.178,163.033,199.217,163.213z"/>
			<path style="fill:#EEA19E;" d="M201.786,161.613c0.468,0.555,0.895,1.14,1.26,1.768c1.574,2.709,2.35,5.814,2.679,8.909
				c0.65,6.108,0.032,12.109-2.84,17.626c-1.512,2.899-3.421,5.536-5.549,8.016c-1.951,2.276-4.164,4.794-6.82,6.265
				c-4.486,2.483-9.213,2.881-14.177,2.916c-0.061-1.167,0.135-2.505,0.269-3.575c0.179-1.435,0.224-2.863,0.199-4.294
				c-1.37,1.013-2.872,1.831-4.416,2.588c-1.108,0.545-2.497,1.736-3.817,1.9c-1-3.386-1.596-9.52-1.806-12.842
				c0.048-0.65,0.115-1.301,0.203-1.949c0.682-5.021,2.445-10.011,4.965-14.442c0.277-0.423,0.56-0.838,0.842-1.237
				c1.701-2.409,3.636-4.633,5.767-6.648c2.354-1.863,5.022-3.342,7.828-4.449c4.841-1.907,10.151-2.935,14.859-0.558
				C201.417,161.602,201.603,161.605,201.786,161.613z"/>
			<path style="fill:#EEA19E;" d="M200.982,161.68c-0.367,0.624-0.693,1.272-0.949,1.954c-1.105,2.932-1.353,6.122-1.165,9.229
				c0.372,6.13,1.975,11.947,5.724,16.912c1.969,2.609,4.291,4.893,6.798,6.985c2.302,1.923,4.901,4.037,7.766,5.048
				c4.835,1.706,9.563,1.315,14.463,0.526c-0.135-1.16-0.55-2.447-0.858-3.48c-0.415-1.386-0.695-2.787-0.907-4.201
				c1.52,0.771,3.135,1.329,4.783,1.82c1.184,0.353,2.749,1.299,4.081,1.242c0.425-3.505-0.006-9.652-0.349-12.963
				c-0.153-0.635-0.329-1.265-0.522-1.889c-1.505-4.841-4.071-9.467-7.289-13.42c-0.345-0.372-0.689-0.734-1.034-1.082
				c-2.076-2.092-4.354-3.966-6.788-5.6c-2.63-1.446-5.507-2.464-8.459-3.089c-5.087-1.08-10.497-1.213-14.745,1.91
				C201.347,161.607,201.163,161.641,200.982,161.68z"/>
		</g>
		<path style="fill:#EEA19E;" d="M241.831,155.518c-3.604,2.676-7.533,4.904-11.764,6.422c-2.828,1.015-6.28,2.26-9.266,1.224
			c-0.248-0.086-0.224-0.43-0.048-0.564c3.513-2.69,7.001-5.415,10.196-8.47c-2.002,1.146-3.993,2.306-6.057,3.35
			c-3.104,1.568-6.939,3.754-10.541,3.617c-4.033-0.152-1.648-5.298-0.709-7.229c2.626-5.404,6.697-9.795,11.633-13.094
			c-5.123,2.165-9.611,5.983-12.718,10.534c-0.195,0.285-0.625,0.029-0.574-0.273c1.008-5.849,5.301-11.311,9.65-15.139
			c2.551-2.244,5.476-4.047,8.751-5.018c2.309-0.683,4.668-1.049,7.046-1.309c-0.899-0.07-1.733-0.126-2.435-0.163
			c-0.649,0.053-1.3,0.127-1.945,0.221c-5.017,0.728-9.988,2.537-14.396,5.097c-0.421,0.281-0.834,0.565-1.23,0.852
			c-0.457,0.328-0.898,0.672-1.34,1.017c-0.18-3.191-0.805-6.314-1.683-9.385c-0.824-2.883-1.786-6.095-3.586-8.54
			c-0.459-0.622-0.945-1.2-1.451-1.746c1.421,3.305,2.701,6.544,3.495,10.104c1.184,5.289,2.384,12.444-0.891,17.24
			c-0.113,0.166-0.42,0.149-0.521-0.024c-1.217-2.115-1.169-4.595-1.65-6.925c-0.47-2.271-1.32-4.812-2.497-6.953
			c1.171,5.764,2.001,11.484,1.594,17.407c-0.246,3.561-0.641,9.129-4.234,11.06c-3.94,2.115-7.726-3.389-9.482-6.091
			c-2.796-4.297-4.236-8.986-5.234-13.888c0.004,1.98,0.051,3.962,0.453,5.887c0.67,3.221,1.936,6.268,2.786,9.44
			c0.086,0.318-0.246,0.568-0.521,0.364c-3.253-2.436-5.009-6.613-6.635-10.212c-1.979-4.377-3.63-9.149-3.471-14.024
			c0.109-3.314,0.629-7.142,1.804-10.691c-0.248,0.444-0.476,0.862-0.681,1.24c-0.227,0.611-0.438,1.23-0.627,1.856
			c-1.476,4.849-1.953,10.118-1.514,15.196c0.05,0.32,0.104,0.63,0.159,0.943c-0.458-0.184-0.915-0.372-1.379-0.54
			c-0.461-0.166-0.937-0.326-1.417-0.482c-3.41-0.87-6.981-1.31-10.518-1.286c2.07,0.618,4.128,1.316,5.988,2.436
			c4.819,2.895,9.185,7.446,10.722,12.979c0.589,2.125,0.988,4.548-0.163,6.562c-0.951,1.668-3.017,1.846-4.718,1.539
			c-1.65-0.297-3.306-0.71-4.939-1.23c0.148,0.105,0.293,0.208,0.441,0.31c1.089,0.754,4.815,2.866,3.85,4.645
			c-0.594,1.091-3.033,0.98-4,0.967c-2.152-0.028-4.223-0.415-6.272-1.058c-2.725-0.854-5.309-2.178-7.701-3.771
			c1.159,1.091,2.391,2.102,3.725,2.88c1.669,0.974,3.547,1.782,4.744,3.36c0.14,0.184,0.026,0.406-0.155,0.497
			c-1.878,0.941-4.176,0.393-6.052-0.276c-2.436-0.868-4.74-2.079-6.934-3.44c-2.323-1.441-4.377-3.063-5.845-5.416
			c-0.057-0.088-0.108-0.179-0.161-0.269c1.044,2.283,2.382,4.418,4.253,6.338c2.12,2.173,5.133,3.644,7.846,4.924
			c2.951,1.394,6,2.542,9.196,3.233c0.496,0.107,0.992,0.194,1.488,0.271c-0.313,0.41-0.627,0.819-0.922,1.241
			c-0.282,0.399-0.564,0.814-0.842,1.237c-2.52,4.431-4.283,9.42-4.965,14.442c-0.05,0.373-0.092,0.748-0.129,1.123
			c0.674-2.367,1.643-4.654,3.016-6.812c1.546-2.432,3.412-4.626,5.608-6.495c2.366-2.014,5.094-4.398,8.05-5.455
			c0.318-0.115,0.559,0.264,0.363,0.52c-1.54,2.007-3.344,3.751-4.63,5.948c-0.463,0.789-0.917,1.582-1.35,2.384
			c1.723-2.005,3.871-3.664,6.11-5.047c3.092-1.906,6.735-4.628,10.577-4.053c0.186,0.027,0.282,0.21,0.262,0.383
			c-0.254,2.162-1.9,4.063-2.935,5.917c-1.179,2.106-2.338,4.226-3.563,6.305c2.505-2.52,4.426-5.572,6.848-8.181
			c0.174-0.188,0.585-0.123,0.577,0.186c-0.151,5.443-2.86,10.157-4.48,15.224c2.547-3.189,4.446-6.888,5.934-10.672
			c0.101-0.253,0.536-0.245,0.606,0.028c0.981,3.877,0.212,7.989-1.175,11.676c-1.296,3.446-3.067,6.896-5.53,9.668
			c-1.311,1.478-2.907,2.999-4.687,4.317c1.379-0.415,2.735-0.966,4.071-1.705c2.656-1.471,4.869-3.988,6.82-6.265
			c2.128-2.48,4.037-5.116,5.549-8.016c0.264-0.508,0.502-1.022,0.73-1.538c0.311,0.471,0.631,0.938,0.977,1.395
			c1.969,2.609,4.291,4.893,6.798,6.985c2.302,1.923,4.901,4.037,7.766,5.048c2.088,0.737,4.158,1.081,6.231,1.173
			c-2.869-0.969-5.635-2.244-8.128-3.966c-3.609-2.493-6.441-5.85-8.533-9.69c-1.669-3.067-3.814-6.923-2.98-10.53
			c0.064-0.284,0.414-0.355,0.591-0.129c2.923,3.749,4.979,8.216,8.612,11.302c-2.021-2.739-4.1-5.48-5.432-8.621
			c-1.123-2.646-2.52-5.781-1.548-8.67c0.074-0.219,0.352-0.214,0.508-0.109c2.319,1.571,3.793,4.054,6.051,5.701
			c1.354,0.985,2.791,1.839,4.142,2.813c-1.364-1.778-2.753-3.557-4.312-5.125c-1.475-1.479-3.399-2.927-3.979-5.027
			c-0.036-0.132-0.016-0.309,0.119-0.383c2.707-1.491,6.532,0.324,9.06,1.463c3.052,1.376,5.695,3.056,8.211,5.099
			c-2.101-2.792-4.384-5.414-7.425-7.265c-0.297-0.182-0.186-0.71,0.203-0.619c6.144,1.436,12.087,4.939,16.092,9.866
			c1.983,2.438,3.136,5.16,3.942,8.018c-0.069-0.873-0.144-1.678-0.214-2.358c-0.153-0.635-0.329-1.265-0.522-1.889
			c-1.505-4.841-4.071-9.467-7.289-13.42c-0.345-0.372-0.689-0.734-1.034-1.082c-0.379-0.381-0.773-0.748-1.165-1.117
			c1.358-0.454,2.692-1.017,3.999-1.713c2.884-1.537,5.506-3.473,7.965-5.62c2.259-1.972,4.756-4.209,6.201-6.879
			c1.665-3.075,2.358-6.253,2.63-9.54C249.64,148.322,246.08,152.359,241.831,155.518z"/>
		<path style="fill:#FFFFFF;" d="M209.133,163.568c-0.522-0.018-1.048-0.047-1.57-0.077c2.014-0.711,3.84-1.985,5.464-3.708
			c2.608-2.766,4.602-7.705,3.846-11.503c-0.077-0.387-0.602,0.138-0.561,0.409c0.595,3.788-1.639,8.269-4.185,10.946
			c-1.441,1.516-3.447,2.622-5.426,3.244c-0.799,0.251-1.907,0.223-2.713,0.205c1.442-1.93,2.355-5.507,2.594-6.599
			c1.314-6.001,0.604-11.517-0.01-17.549c-0.03-0.294-0.45,0.109-0.436,0.319c0.33,4.324,0.775,8.593,0.398,12.928
			c-0.173,1.957-0.691,3.919-1.143,5.829c-0.145,0.605-1.097,3.49-2.266,4.677c0.712-1.623,1.047-3.308,0.907-5.244
			c-0.028-0.379-0.603,0.097-0.597,0.353c0.032,1.129-0.127,2.212-0.373,3.312c-0.167,0.739-0.471,1.381-0.826,2.002
			c-0.018-0.007-0.026-0.022-0.046-0.026c-0.017-0.009-0.034-0.021-0.053-0.031c0.03-0.294-0.11-0.517-0.504-0.262
			c-0.193,0.123-0.339,0.292-0.417,0.502c-0.008-0.005-0.016-0.009-0.023-0.014c0.011-0.015,0.026-0.031,0.032-0.045
			c0.123-0.227,0.188-0.46,0.214-0.694c0.061-0.075,0.107-0.154,0.121-0.228c0.358-2.026-0.066-3.952-0.391-5.964
			c-0.369-2.298-0.849-4.57-1.742-6.732c-1.852-4.476-4.2-8.889-7.982-11.984c-0.186-0.153-0.517,0.323-0.331,0.486
			c5.494,4.803,8.709,13.016,9.513,20.533c-0.355-1.418-0.777-2.746-1.398-4.139c-1.677-3.759-4.748-7.062-8.152-9.325
			c-0.22-0.145-0.564,0.363-0.357,0.523c2.769,2.087,4.924,4.766,6.707,7.723c0.939,1.564,1.695,3.335,2.169,5.094
			c0.334,1.244,0.925,2.971,0.985,4.348c-4.805-3.224-9.601-7.805-11.907-13.05c-0.101-0.232-0.502,0.19-0.43,0.38
			c1.095,2.918,2.851,5.64,5.029,7.866c1.823,1.863,3.814,3.942,6.034,5.474c-3.578-0.132-6.831-1.165-10.279-2.769
			c-3.708-1.726-7.08-3.908-9.503-7.26c-0.165-0.225-0.536,0.231-0.409,0.426c4.526,6.975,13.689,11.098,21.935,10.652
			c0.026,0.014,0.055,0.029,0.082,0.043c0.007,0.005,0.019,0.005,0.026,0.007c-2.433,2.815-7.614,3.44-11.028,3.879
			c-3.588,0.462-8.953,0.057-12.099-1.91c-0.254-0.159-0.649,0.431-0.401,0.591c3.541,2.264,8.88,2.731,12.959,2.26
			c3.006-0.347,7.01-0.984,9.692-2.95c-0.052,0.098-0.086,0.164-0.094,0.174c-0.771,1.267-2.091,2.203-3.29,3.024
			c-2.263,1.552-5.443,3.396-8.287,3.108c-0.246-0.024-0.561,0.531-0.265,0.58c3.268,0.537,6.718-1.614,9.308-3.361
			c1.681-1.135,3.404-2.941,4.238-4.947c0.994,3.492,0.202,8.384-1.743,11.17c-0.275,0.396,0.111,0.651,0.394,0.269
			c1.336-1.802,2.122-4.325,2.38-6.535c0.127-1.098,0.476-3.531,0.097-5.224c3.237,2.91,4.444,6.517,4.564,11.065
			c-0.047,0.538,0.84,0.275,0.933-0.407c0.568-4.149-1.082-8.124-4.098-10.776c0.917-0.083,1.826-0.161,2.768-0.13
			c2.76,0.093,5.033,0.341,7.538,1.585c0.354,0.175,0.866-0.589,0.53-0.777C213.246,164.225,211.45,163.646,209.133,163.568z"/>
	</g>
</g>
</svg>
