<svg xmlns="http://www.w3.org/2000/svg" viewBox="0 0 487.81 298.98"><defs><style>.cls-1{isolation:isolate;}.cls-2{fill:#e93e25;}.cls-3,.cls-4{fill:#7395b4;}.cls-4{mix-blend-mode:screen;}.cls-5{fill:#fff;}.cls-6,.cls-7,.cls-8{mix-blend-mode:multiply;}.cls-7{fill:#3c5265;opacity:0.3;}.cls-8{fill:#ddecf5;}</style></defs><title>montfuji2</title><g class="cls-1"><g id="Layer_1" data-name="Layer 1"><circle class="cls-2" cx="237.1" cy="82.7" r="82.7"/><circle class="cls-2" cx="237.1" cy="82.7" r="82.7"/><path class="cls-3" d="M366.67,189c-36.34-39.55-75.83-85.57-96.75-119.61-1.73,2-3.51,4-6,4.9-2.28.84-4.24.45-6.49-.34-2.44-.85-4.51-1.07-6.89.16a11.85,11.85,0,0,1-3.16,1.38c-5.08.86-8.58-4.1-13.68-1.74-4.63,2.15-6.59-2.44-9.91-4.57-20.89,34.07-60.47,80.19-96.88,119.82-30,32.65-57.82,60.89-71.3,74.39,45.22,11.1,114.06,18.19,191.16,18.19S392.74,274.49,438,263.39C424.49,249.89,396.65,221.65,366.67,189Z" transform="translate(-7.54 -4.62)"/><path class="cls-4" d="M103.65,237.79c9.75-4.83,16.56-15,22.33-23.81a122.72,122.72,0,0,0,8.84-16.53c-4.63,5.32-9.26,10.63-13.58,16.2C115.26,221.39,108,228.93,103.65,237.79Z" transform="translate(-7.54 -4.62)"/><path class="cls-4" d="M242.93,135.82c-.78,10.21-1,20.45-2,30.64-.61,6.24-1.48,12.46-1.81,18.73-.31,5.79-.55,12.15,1.54,17.69,2.5-4.74,3-10.48,3.26-15.73.26-5.56,0-11.11.19-16.67.22-7.95.83-15.78.29-23.75C244.17,143.12,243.37,139.47,242.93,135.82Z" transform="translate(-7.54 -4.62)"/><path class="cls-4" d="M336.23,191.53c-3.34-2.95-6.84-5.76-10.32-8.58,11.46,16.57,23,33.07,36.69,47.93C356.86,216.05,348.19,202.09,336.23,191.53Z" transform="translate(-7.54 -4.62)"/><path class="cls-4" d="M287.28,166.23c-1.41-2.06-3-4-4.54-5.95,3.38,10.4,7.09,20.69,10.87,30.94,2.2,6,4.5,11.89,6.53,17.91,1.69,5,3.34,10.25,6.3,14.69-1.55-13.11-4.5-26.63-9.57-38.8C294.21,178.64,291.21,172,287.28,166.23Z" transform="translate(-7.54 -4.62)"/><path class="cls-4" d="M252,154.28a150.2,150.2,0,0,0,3.79,22.52,140.12,140.12,0,0,0,9.46,27.86c.54-9.52-1.29-19.12-4.1-28.18A130.27,130.27,0,0,0,252,154.28Z" transform="translate(-7.54 -4.62)"/><path class="cls-4" d="M157.82,237c6.39-5.07,9-14.35,12.43-21.37,5.35-10.84,10.36-21.93,15-33.09,6.59-15.76,12.19-32,19-47.69-8.78,14.69-16.67,29.91-24.26,45.25C171.1,198.18,160,216.54,157.82,237Z" transform="translate(-7.54 -4.62)"/><path class="cls-5" d="M167.48,153.53c5.89-3.65,10.45-10.15,14.63-15.55s8.37-11.13,13.14-16.21c.29-.32,1-.1.93.39-1.06,8-4.57,15.23-7.21,22.76,5.58-6.07,10.29-13,16.75-18.16a.56.56,0,0,1,.78,0c5.14,5.83,6.43,13.91,9.34,20.9A44.83,44.83,0,0,0,223,159.1a24.27,24.27,0,0,1,4.65,7.38c6.72-15.32,6.2-33.85,16.38-47.59a.56.56,0,0,1,.75-.2,32.27,32.27,0,0,1,9.45,12.61c2.79,6.35,1.16,13.68,5.05,19.64,1.86,2.86,4.16,5.4,6.06,8.24a35.39,35.39,0,0,1,3.85,8.1c2.15,6.12,3.76,12.49,6.95,18.16,2-12.75-.55-25.75,1.77-38.48a.55.55,0,0,1,.8-.33c3.43,2.13,5.83,5.45,8.71,8.23.43-11.61-4-22.37-6.52-33.56-.1-.43.38-.91.8-.61,12.65,8.76,20.48,22.38,31.9,32.45,11.61,10.22,21.76,22.44,35.3,30.24-2.57-9-7.28-17.09-10.49-25.79-27.15-31-53-62.89-68.52-88.2-1.73,2-3.51,4-6,4.9-2.28.84-4.24.45-6.49-.34-2.44-.85-4.51-1.07-6.89.16a11.85,11.85,0,0,1-3.16,1.38c-5.08.86-8.58-4.1-13.68-1.74-4.63,2.15-6.59-2.44-9.91-4.57C208.15,94.73,182,127.06,154.5,158.35,158.94,157,163.54,156,167.48,153.53Z" transform="translate(-7.54 -4.62)"/><g class="cls-6"><path class="cls-3" d="M218.32,89.29c-9.49,22.59-21.86,43.25-35.36,63.62s-27.31,40.42-39.48,61.49c-.83,1.43.85,1.4,1.51.39,13.69-20.76,27-41.8,40.68-62.55,13.29-20.12,25.41-40.53,34.18-63.08C220.35,87.85,218.66,88.48,218.32,89.29Z" transform="translate(-7.54 -4.62)"/><path class="cls-3" d="M233.64,96.27c0-.88-1.4.11-1.42.69-.7,21.45-6.66,42.12-9.16,63.31-.16,1.35,1.49.27,1.72-.39,1.76-4.91,2.46-10.1,3.32-15.23.94-5.53,1.92-11,2.74-16.58C232.39,117.51,233.86,107,233.64,96.27Z" transform="translate(-7.54 -4.62)"/><path class="cls-3" d="M288.9,213c-3-9.62-7-18.95-10-28.59s-6.19-18.95-9.23-28.45c-3.12-9.76-5.8-19.67-8.38-29.6-2.51-9.69-5.58-19.42-7-29.35-.14-1-1.51.22-1.45.89,1,9.64,3.47,19.14,5.69,28.55,2.31,9.79,4.76,19.55,7.67,29.17,3,10,6.44,19.89,9.58,29.86s6.33,20.1,11.26,29.21C287.6,215.8,289.17,213.88,288.9,213Z" transform="translate(-7.54 -4.62)"/><path class="cls-3" d="M285.19,126.9c-2.5-6.7-7-12.64-10.31-19-3.44-6.69-6.73-13.54-9.88-20.38-.33-.72-1.5.51-1.27,1.12,5.12,13.59,10.86,28.19,19.49,40C284,129.7,285.53,127.82,285.19,126.9Z" transform="translate(-7.54 -4.62)"/><path class="cls-3" d="M371.91,210.77c-12.21-16.93-27.26-31.39-40.87-47.12-7.12-8.22-13.85-16.77-20.83-25.1-3.63-4.34-7.34-8.63-11-12.94s-7.83-8.53-11.11-13.27c-.37-.55-1.33.45-1,.92,5.24,8.58,12.33,16.36,18.76,24.06,7.3,8.73,14.2,17.77,21.44,26.55,6.59,8,13.9,15.49,20.89,23.13,7.56,8.26,14.63,17.13,22.82,24.77C371.35,212.14,372.2,211.16,371.91,210.77Z" transform="translate(-7.54 -4.62)"/></g><path class="cls-7" d="M366.67,189c-36.34-39.55-75.83-85.57-96.75-119.61-1.73,2-3.51,4-6,4.9-2.28.84-4.24.45-6.49-.34-2.44-.85-4.51-1.07-6.89.16a11.85,11.85,0,0,1-3.16,1.38c-5.08.86-8.58-4.1-13.68-1.74-4.63,2.15-6.59-2.44-9.91-4.57-20.89,34.07-60.47,80.19-96.88,119.82-30,32.65-57.82,60.89-71.3,74.39,45.22,11.1,114.06,18.19,191.16,18.19S392.74,274.49,438,263.39C424.49,249.89,396.65,221.65,366.67,189ZM227.5,229c-1.36,14.06-3.61,32.29-15.51,41.71-.33.27-1,.15-.94-.38,1.25-15.23,2.22-30.51,3.87-45.69a.55.55,0,0,1-.13-.35c0-10.86.36-21.8,2.79-32.43.85-3.76,1.53-7.57,2.47-11.3.77-3.08,1.69-6.29,3.89-8.67a.54.54,0,0,1,.91.24C230.36,190.26,229.3,210.39,227.5,229Zm3.55-107.32c-1.26,9.58-2.18,19.37-4.51,28.76-2,8.31-5.11,16.46-8,24.53-2.29,6.47-4.87,13.14-9.58,18.28a.55.55,0,0,1-.93-.39c-.19-18.64,9.61-35.49,11.1-53.87-2.42,3.82-3.53,8.56-4.7,12.84-1.45,5.32-3.17,10.54-5,15.76-4.08,11.95-8.38,23.78-13.27,35.42a289,289,0,0,1-15.6,32.41c-4,6.92-8.25,15.17-15.54,19.16-4.11,2.24-8.27,2.43-12.82,2.49-4.9.06-9.82.11-14.71-.19-2.79-.17-7.62,0-9.9-2s.07-6.38,1.09-8.44c2.08-4.17,4.94-8,6.9-12.17,3.41-7.34,7.32-14.48,11-21.7,7.4-14.54,14.66-29.18,20.7-44.35-14.44,19.24-25.43,40.77-38.55,60.89-2.52,3.87-5,7.78-7.48,11.65-2.3,3.55-4.78,7.1-8.12,9.76-6.25,5-14.23.59-20.51-2.21a.53.53,0,0,1-.2-.74c1.9-2.65,4.06-5.09,6-7.69a64.71,64.71,0,0,1-19.25,10.73.55.55,0,0,1-.53-.91q4.44-4.38,8.86-8.79c24.69-24.61,48.9-49.77,71.38-76.44,11.37-13.49,22.11-27.52,32.59-41.7,7.42-10,14.89-20.09,21.46-30.7a.49.49,0,0,1,0-.57c3.13-5.1,6.13-10.29,9.35-15.34a.56.56,0,0,1,1,.13c1.66,4.74-1.1,9.75-3.22,13.88-3.29,6.4-6,13.14-8.71,19.81-2.25,5.56-4.81,10.94-7.31,16.4s-4.86,11.14-5.35,17.16a79.75,79.75,0,0,0,8.52-15.77c2.32-5.4,4.79-10.75,7-16.17,3.55-8.55,6.37-19,13.35-25.45.27-.24.85-.19.91.25.8,5.55-1.27,10.69-2.22,16.05,2.15-3.85,4.4-7.64,6.84-11.32.28-.42,1.06-.3,1,.28C233.49,101.58,232.36,111.66,231.05,121.71Zm37.07-41.48a359.68,359.68,0,0,1,29.07,33.44c7.38,9.51,15.13,20,17.85,31.92a.55.55,0,0,1-.91.53c-9.12-7.12-16.93-15.91-23.8-25.18a175,175,0,0,1-15.39-24.6,73.94,73.94,0,0,1-7.73-15.58A.55.55,0,0,1,268.12,80.23ZM272.7,214.5a.56.56,0,0,1-.75.19c-10-5.12-16.93-13.77-24.11-22.1-1.26,6.15-1.05,12.4-.89,18.65.13,5.32-.21,10.62-.2,15.94,0,10,.84,20.63-2.44,30.22a.55.55,0,0,1-1.05,0c-8.81-38.79-6.64-78.41-5.08-117.9-.18-7.82-.44-15.65-.52-23.48-.06-5.24-.12-10.5-.09-15.75,0-4.14.32-8.23,2-12.07a.55.55,0,0,1,.86-.11c3.57,3.34,4.25,9,4.65,13.64.39,4.4.32,8.82.5,13.22.75-3.51,1.38-7,2.17-10.53a.55.55,0,0,1,1-.13c4.15,9,4.37,19,6.49,28.56,2.54,11.35,6.06,22.64,9.66,33.69,1.71,5.28,4.18,10.29,5.77,15.61a113,113,0,0,1,2.71,12.23C274.47,200.5,276.18,208.83,272.7,214.5Zm53.95,13.71a.56.56,0,0,1-.92.25A127.41,127.41,0,0,1,310.9,211c-1.68-2.46-3.12-5.07-4.78-7.55-1.41-2.11-3-4.61-5.31-6,2.78,5.28,4.59,11,6.41,16.66,1.49,4.64,3.46,9.1,5.15,13.67,3.21,8.68,7.52,19.48,5.29,28.87a.54.54,0,0,1-.91.24c-6.3-5.66-8.5-14.61-12.73-21.7a266.72,266.72,0,0,1-15.66-29.8c-2.56-5.82-5.09-11.67-7.53-17.57a209.49,209.49,0,0,1-15.95-38.26c-2.16-7.15-4-14.51-5.58-21.81-1.39-6.41-2.51-13-1.45-19.59a.55.55,0,0,1,1-.13c1.86,3.91,4,7.65,6,11.45-3-9.64-7.19-19.34-6.32-29.51a.56.56,0,0,1,.94-.39c3.73,4.11,5.85,9.42,7.85,14.51,2.35,6,4.56,11.85,7.91,17.33,8.52,13.93,18,27.22,27.37,40.62,4.46,6.4,9.14,12.66,13.38,19.21,3.32,5.13,6.87,10.54,8.83,16.37a63.27,63.27,0,0,1,3,15.95C328.2,218.42,328.24,223.56,326.65,228.21ZM385.35,257c-7.83-5.9-13.51-14-20.26-21-7.85-8.15-15.84-16.22-23-25-6.94-8.55-13.4-17.48-19.78-26.46a.45.45,0,0,1-.33-.17c-7.29-8.51-14.49-17.18-20.46-26.69-3-4.78-5.83-9.65-8.95-14.37-2.62-4-5.19-8-6.29-12.7-.1-.43.39-.9.81-.61,5.56,3.72,9.7,9,14,14,5,5.74,10.39,11.08,15.88,16.33,10.12,9.68,20.1,19.47,29.64,29.73,17.42,18.76,35.11,40.38,39.5,66.36C386.22,256.77,385.78,257.31,385.35,257Z" transform="translate(-7.54 -4.62)"/><path class="cls-5" d="M153.34,259.49a13.66,13.66,0,0,0-12.08-.61,18.09,18.09,0,0,0-14-14,31.56,31.56,0,0,0-17.72,1.58c0-.15-.07-.32-.1-.46-1.2-5.86-7.19-11.12-12.91-12.06a25.27,25.27,0,0,0-9.84-.2,30.92,30.92,0,0,0-7.65,3,12,12,0,0,0-1.64-4.18C74.5,228,68,226.3,62.91,226c-6.63-.38-13.42,4.62-16.53,10.21-.3.56-.59,1.16-.86,1.78-3.87-1.11-8.83-1.29-12.16.84a11.76,11.76,0,0,0-5.07,6.74c-5.85-.95-11.86,2.19-16,7.17A19.59,19.59,0,0,0,7.6,266.53c.44,5.2,4.1,10,7.38,13.76,4,4.65,9.6,6.85,15.51,7.84,5.64.94,12.44,1.37,18-.15A29.59,29.59,0,0,0,61,280.54a21.67,21.67,0,0,0,12.07,13.68c5.21,2.23,12.65.75,17.32-2.11a19,19,0,0,0,7-8.1c6.82,6.14,17.59,6.81,26.13,4.22a25.73,25.73,0,0,0,11.17-6.77,19.7,19.7,0,0,0,7.44,3.4c5.93,1.28,14.3-.34,17.37-6.23C163.68,270.75,160.5,263.87,153.34,259.49Z" transform="translate(-7.54 -4.62)"/><path class="cls-8" d="M153.34,259.49a13.66,13.66,0,0,0-12.08-.61,18.09,18.09,0,0,0-14-14,31.56,31.56,0,0,0-17.72,1.58c0-.15-.07-.32-.1-.46-1.2-5.86-7.19-11.12-12.91-12.06a25.27,25.27,0,0,0-9.84-.2,30.92,30.92,0,0,0-7.65,3,12,12,0,0,0-1.64-4.18C74.5,228,68,226.3,62.91,226c-6.63-.38-13.42,4.62-16.53,10.21-.3.56-.59,1.16-.86,1.78-3.87-1.11-8.83-1.29-12.16.84a11.76,11.76,0,0,0-5.07,6.74c-5.85-.95-11.86,2.19-16,7.17A19.59,19.59,0,0,0,7.6,266.53c.44,5.2,4.1,10,7.38,13.76,4,4.65,9.6,6.85,15.51,7.84,5.64.94,12.44,1.37,18-.15A29.59,29.59,0,0,0,61,280.54a21.67,21.67,0,0,0,12.07,13.68c5.21,2.23,12.65.75,17.32-2.11a19,19,0,0,0,7-8.1c6.82,6.14,17.59,6.81,26.13,4.22a25.73,25.73,0,0,0,11.17-6.77,19.7,19.7,0,0,0,7.44,3.4c5.93,1.28,14.3-.34,17.37-6.23C163.68,270.75,160.5,263.87,153.34,259.49Zm-40.66,21.14a23.52,23.52,0,0,1-12.6-1.52l-.37-.15c-.34.47-.68.93-1,1.37-4.43,5.23-11.19,7.29-17.92,6.43C74.61,286,68.42,283.46,65,278a18.37,18.37,0,0,1-2.87-9.68,30.3,30.3,0,0,1-17.75,14c-8.54,2.5-19,2.52-26.09-3.7-6.45-5.71-9.26-16-4-23.43,3.27-4.62,11-8.5,16.07-5.49.17-.44.35-.88.55-1.3,2.14-4.36,8.85-9.54,13.17-4.93a.57.57,0,0,1,0,.78c-1.78,2.26-5.79,6.6-3.9,9.66,1.83-2.81,2.82-6.4,5.46-8.55a12.27,12.27,0,0,1,8.89-2.73,7.33,7.33,0,0,0-7.82-2c-.48.17-.83-.42-.62-.81,3.29-6.13,11.37-10.5,18.35-9.9,5.88.5,11.61,4.08,11,10.26,6.15-3,13.69-3.71,19.7-.35s8.76,9.22,9,15.53a21.84,21.84,0,0,1,10.47-5.11c7.6-1.11,16.68,3.91,16.43,12.43C130.75,272.53,121.58,279.1,112.68,280.63Zm39.48-3.89c-4.88,3.5-12.68,3-15.6-2.81-2.22-4.42,1.06-11.09,5.74-11.63C150.06,258.36,160.64,270.65,152.16,276.74Z" transform="translate(-7.54 -4.62)"/><path class="cls-5" d="M233.47,271.25c-.78-3.62-4.19-5.37-7.63-5.34a10,10,0,0,0-2.88.48,10.91,10.91,0,0,0-7.55-4.2,9.57,9.57,0,0,0-7.72,2.65c.51-5.5-2.34-11.78-7.79-13.25A11.2,11.2,0,0,0,192,252.8a8.64,8.64,0,0,0-3.72-3.36c-2.37-1.26-5-.46-7.22.75-3.76,2.06-6.53,6.28-6.33,10.56a5.33,5.33,0,0,0-5,1,6.93,6.93,0,0,0-1.92,3c-5.87-6.1-17-4.35-21.89,2.48-3.06,4.24-2.59,8.9.33,13.05,2.6,3.71,6.38,6.05,10.58,4.7a14.48,14.48,0,0,0,4.19,4.51c4.36,2.55,9.1,1.21,12.19-2.28-.52,3.83,2.12,7.33,5.14,9.7,3.76,2.94,9.6,3.6,14.13,2.52a15.19,15.19,0,0,0,9.89-8.12c.12-.24.24-.49.35-.75a15.25,15.25,0,0,0,4.08.22,10,10,0,0,0,6.48-2.67A17.08,17.08,0,0,0,218.7,286a11.66,11.66,0,0,0,3.94-4.47,10,10,0,0,0,7.13-1.41A8.41,8.41,0,0,0,233.47,271.25Z" transform="translate(-7.54 -4.62)"/><path class="cls-8" d="M233.47,271.25c-.78-3.62-4.19-5.37-7.63-5.34a10,10,0,0,0-2.88.48,10.91,10.91,0,0,0-7.55-4.2,9.57,9.57,0,0,0-7.72,2.65c.51-5.5-2.34-11.78-7.79-13.25A11.2,11.2,0,0,0,192,252.8a8.64,8.64,0,0,0-3.72-3.36c-2.37-1.26-5-.46-7.22.75-3.76,2.06-6.53,6.28-6.33,10.56a5.33,5.33,0,0,0-5,1,6.93,6.93,0,0,0-1.92,3c-5.87-6.1-17-4.35-21.89,2.48-3.06,4.24-2.59,8.9.33,13.05,2.6,3.71,6.38,6.05,10.58,4.7a14.48,14.48,0,0,0,4.19,4.51c4.36,2.55,9.1,1.21,12.19-2.28-.52,3.83,2.12,7.33,5.14,9.7,3.76,2.94,9.6,3.6,14.13,2.52a15.19,15.19,0,0,0,9.89-8.12c.12-.24.24-.49.35-.75a15.25,15.25,0,0,0,4.08.22,10,10,0,0,0,6.48-2.67A17.08,17.08,0,0,0,218.7,286a11.66,11.66,0,0,0,3.94-4.47,10,10,0,0,0,7.13-1.41A8.41,8.41,0,0,0,233.47,271.25Zm-15.1,6.36a5.79,5.79,0,0,1-5.76-1.51c.53,3.6-1.05,7.69-4.45,9.28a6.41,6.41,0,0,1-5.3-.1c-2.23,6-8.1,10.91-14.32,10.94a11.6,11.6,0,0,1-7-2.2c-1.3-1-2.83-2.43-3.09-4.14-.3-1.93.77-3.19,2.3-4.25.49-.35,1-.71,1.43-1.08a7.87,7.87,0,0,1-4.44.51.31.31,0,0,1-.13-.51,26.49,26.49,0,0,0,3-3.67A19.31,19.31,0,0,1,168,285a13,13,0,0,1-8.18-3.29,7.64,7.64,0,0,1-2.4-3.93,17.94,17.94,0,0,1-.1-4.8c-1.5,2.51-2.48,6.21-.37,8.45a.3.3,0,0,1-.22.51c-3.37.32-6.62-1.1-7.92-4.39a10.27,10.27,0,0,1,1.35-9.78c2.89-3.78,9.51-5.37,13-2.41a13.41,13.41,0,0,1,5.18,4.81,7.74,7.74,0,0,1,2.25-4.6,4.91,4.91,0,0,1,5.62-.72,13,13,0,0,1,3.46-7.93c1.8-1.82,4.94-3.79,7.57-2.56a4.74,4.74,0,0,1,2.62,4,8.5,8.5,0,0,1,4.46-1.11,11.84,11.84,0,0,1,9.51,6,12.49,12.49,0,0,1,1.46,6.79,9.78,9.78,0,0,1,7.55-3.61c3.11-.06,7.47.95,8.66,4.28C222.5,273.46,221.29,276.8,218.37,277.61Z" transform="translate(-7.54 -4.62)"/><path class="cls-5" d="M358.37,267.2a16.51,16.51,0,0,0,12,.05,18.85,18.85,0,0,0,7.76,6,27.9,27.9,0,0,0,9.38,1.85,16.57,16.57,0,0,0,11.3,2.28,25.13,25.13,0,0,0,6.52-1.63c.27.39.54.75.82,1.1,4.56,5.79,11.05,9.72,18.51,10,7.65.32,16.89-2.57,22-8.49,4.14-4.78,7.31-11.26,5.27-17.29,6.08,4.68,14.16,5.36,20.41-.13a23.82,23.82,0,0,0,5.36-8.59c7.2.87,12.57-4.09,15.62-10.9,3.42-7.62,2.72-15.3-3.55-21.19-10.09-9.49-28.56-8.86-36.14,2.83a11.55,11.55,0,0,0-4.05-4.32,8.81,8.81,0,0,0-8.33,0c-1-7-6.81-12.92-13.52-15.08-3.92-1.26-8.47-1.72-11.9,1a14.26,14.26,0,0,0-5,6.61c-4.32-1.22-9-1.51-13.15.52-8.35,4.08-11,15.11-8.44,23.83a15.75,15.75,0,0,0-13.3-1.86A17.92,17.92,0,0,0,365.09,243a16.85,16.85,0,0,0-4.8.11c-5.56,1-10.53,4.94-10.66,11S353,264.86,358.37,267.2Z" transform="translate(-7.54 -4.62)"/><path class="cls-8" d="M358.37,267.2a16.51,16.51,0,0,0,12,.05,18.85,18.85,0,0,0,7.76,6,27.9,27.9,0,0,0,9.38,1.85,16.57,16.57,0,0,0,11.3,2.28,25.13,25.13,0,0,0,6.52-1.63c.27.39.54.75.82,1.1,4.56,5.79,11.05,9.72,18.51,10,7.65.32,16.89-2.57,22-8.49,4.14-4.78,7.31-11.26,5.27-17.29,6.08,4.68,14.16,5.36,20.41-.13a23.82,23.82,0,0,0,5.36-8.59c7.2.87,12.57-4.09,15.62-10.9,3.42-7.62,2.72-15.3-3.55-21.19-10.09-9.49-28.56-8.86-36.14,2.83a11.55,11.55,0,0,0-4.05-4.32,8.81,8.81,0,0,0-8.33,0c-1-7-6.81-12.92-13.52-15.08-3.92-1.26-8.47-1.72-11.9,1a14.26,14.26,0,0,0-5,6.61c-4.32-1.22-9-1.51-13.15.52-8.35,4.08-11,15.11-8.44,23.83a15.75,15.75,0,0,0-13.3-1.86A17.92,17.92,0,0,0,365.09,243a16.85,16.85,0,0,0-4.8.11c-5.56,1-10.53,4.94-10.66,11S353,264.86,358.37,267.2Zm10.38-17.63c.88-5.75,7.61-8.75,12.65-9.61a16.09,16.09,0,0,1,13.33,3.45A20.47,20.47,0,0,1,395,232a19.52,19.52,0,0,1,13.48-12.69,14.21,14.21,0,0,1,7.55.4c-.2-2.78.51-5.51,3-7.32,3.85-2.8,9.55-.59,13,1.78a21.45,21.45,0,0,1,8.08,11.72,8.09,8.09,0,0,1,9.3-.59,12.72,12.72,0,0,1,5.08,6.73,22.15,22.15,0,0,1,6.86-9.39c4.77-5.89,16-5.39,21.83-.18a17,17,0,0,1,5.24,15.37c-1.07,5.72-5.88,9-11.43,9.57a.5.5,0,0,1-.51-.76c2.71-4.27,0-9.95-3.24-13.53a29.86,29.86,0,0,1,1.33,7.79,12.55,12.55,0,0,1-2.64,7.09,21.29,21.29,0,0,1-12.19,7.88,31.81,31.81,0,0,1-21.76-2.73,42.8,42.8,0,0,0,6.05,5,.51.51,0,0,1-.06.86,12.8,12.8,0,0,1-7.33.56c.86.46,1.74.89,2.65,1.3,2.8,1.25,4.92,2.93,5.05,6.15.11,2.85-1.92,5.65-3.71,7.66A19.09,19.09,0,0,1,430,280.38c-10.07,1.89-21.09-4.29-26.56-13.2a10.58,10.58,0,0,1-8.53,1.83c-6-1.5-9.82-7.62-10.09-13.61a9.54,9.54,0,0,1-8.84,4.25C371,259.25,368.05,254.24,368.75,249.57Z" transform="translate(-7.54 -4.62)"/><path class="cls-5" d="M284.05,280a11.89,11.89,0,0,0,8.46,1.68,13.66,13.66,0,0,0,4.67,5.29,20.29,20.29,0,0,0,6.38,2.6,12,12,0,0,0,7.69,3.16,18.32,18.32,0,0,0,4.83-.26c.14.31.28.6.43.88A18,18,0,0,0,328.23,303c5.36,1.27,12.29.49,16.74-3,3.59-2.81,6.71-7,6.1-11.51,3.66,4.15,9.28,5.73,14.45,2.7a16.87,16.87,0,0,0,5-5.34c5,1.6,9.46-1.17,12.55-5.57,3.46-4.92,4-10.44.39-15.47-5.84-8.09-19-10.17-25.95-3a8.45,8.45,0,0,0-2.27-3.61,6.34,6.34,0,0,0-5.89-1.16c.24-5.07-3-10.07-7.5-12.52-2.6-1.43-5.75-2.37-8.55-.89a10.25,10.25,0,0,0-4.42,4,13.18,13.18,0,0,0-9.37-1.44c-6.46,1.74-9.84,9.18-9.23,15.7a11.35,11.35,0,0,0-9.16-3.14,12.93,12.93,0,0,0-8.95,5,12.16,12.16,0,0,0-3.41-.57c-4.08,0-8.13,2-9.05,6.33A10,10,0,0,0,284.05,280Z" transform="translate(-7.54 -4.62)"/><path class="cls-8" d="M284.05,280a11.89,11.89,0,0,0,8.46,1.68,13.66,13.66,0,0,0,4.67,5.29,20.29,20.29,0,0,0,6.38,2.6,12,12,0,0,0,7.69,3.16,18.32,18.32,0,0,0,4.83-.26c.14.31.28.6.43.88A18,18,0,0,0,328.23,303c5.36,1.27,12.29.49,16.74-3,3.59-2.81,6.71-7,6.1-11.51,3.66,4.15,9.28,5.73,14.45,2.7a16.87,16.87,0,0,0,5-5.34c5,1.6,9.46-1.17,12.55-5.57,3.46-4.92,4-10.44.39-15.47-5.84-8.09-19-10.17-25.95-3a8.45,8.45,0,0,0-2.27-3.61,6.34,6.34,0,0,0-5.89-1.16c.24-5.07-3-10.07-7.5-12.52-2.6-1.43-5.75-2.37-8.55-.89a10.25,10.25,0,0,0-4.42,4,13.18,13.18,0,0,0-9.37-1.44c-6.46,1.74-9.84,9.18-9.23,15.7a11.35,11.35,0,0,0-9.16-3.14,12.93,12.93,0,0,0-8.95,5,12.16,12.16,0,0,0-3.41-.57c-4.08,0-8.13,2-9.05,6.33A10,10,0,0,0,284.05,280Zm9.77-11c1.4-3.95,6.57-5.15,10.26-5.07A11.6,11.6,0,0,1,313,268.2a14.74,14.74,0,0,1,1.73-8.05A14,14,0,0,1,326,253a10.1,10.1,0,0,1,5.29,1.32,5.62,5.62,0,0,1,3.11-4.77c3.11-1.46,6.84.88,9,3A15.41,15.41,0,0,1,347.5,262a5.83,5.83,0,0,1,6.66.86,9.15,9.15,0,0,1,2.67,5.45,15.8,15.8,0,0,1,6.14-5.69c4.18-3.52,12-1.64,15.45,2.85A12.2,12.2,0,0,1,380,277.07c-1.54,3.9-5.39,5.58-9.4,5.21a.37.37,0,0,1-.25-.62c2.5-2.64,1.33-7-.44-10a21.69,21.69,0,0,1-.12,5.69A9.05,9.05,0,0,1,367,282a15.28,15.28,0,0,1-9.69,3.9,22.88,22.88,0,0,1-15-4.9,32.27,32.27,0,0,0,3.59,4.35.36.36,0,0,1-.15.6,9.28,9.28,0,0,1-5.27-.6c.55.44,1.11.86,1.71,1.28,1.8,1.26,3.06,2.74,2.72,5-.31,2-2.13,3.74-3.67,4.91a13.68,13.68,0,0,1-8.25,2.61c-7.38,0-14.34-5.92-17-13a7.63,7.63,0,0,1-6.29.12c-4-1.88-5.9-6.73-5.27-11a6.86,6.86,0,0,1-6.83,1.79C294.11,276.16,292.68,272.2,293.82,269Z" transform="translate(-7.54 -4.62)"/><path class="cls-5" d="M199.83,289.67c2.14,4.11,8,5.23,12.1,4.35a13.7,13.7,0,0,0,5.19-2.38,17.87,17.87,0,0,0,7.78,4.72c5.95,1.8,13.46,1.34,18.21-2.94a13.25,13.25,0,0,0,4.9,5.65c3.25,2,8.43,3,12.06,1.46a15.06,15.06,0,0,0,8.42-9.53,20.58,20.58,0,0,0,8.75,5.19c3.86,1.05,8.61.76,12.54.1,4.11-.69,8-2.22,10.8-5.46,2.29-2.66,4.83-6,5.14-9.59a13.59,13.59,0,0,0-3.28-9.61c-2.87-3.47-7.06-5.65-11.13-5a8.2,8.2,0,0,0-3.54-4.7c-2.31-1.48-5.77-1.36-8.47-.58-.19-.44-.39-.86-.6-1.24-2.17-3.9-6.9-7.39-11.52-7.12-3.51.21-8.07,1.36-10.1,4.54a8.57,8.57,0,0,0-1.15,2.92,21.35,21.35,0,0,0-5.32-2.07,17.61,17.61,0,0,0-6.86.14c-4,.66-8.16,4.32-9,8.4,0,.11,0,.22-.07.33a22,22,0,0,0-12.34-1.1,12.59,12.59,0,0,0-9.75,9.75,9.5,9.5,0,0,0-8.42.43C199.18,279.39,197,284.18,199.83,289.67Z" transform="translate(-7.54 -4.62)"/><path class="cls-8" d="M199.83,289.67c2.14,4.11,8,5.23,12.1,4.35a13.7,13.7,0,0,0,5.19-2.38,17.87,17.87,0,0,0,7.78,4.72c5.95,1.8,13.46,1.34,18.21-2.94a13.25,13.25,0,0,0,4.9,5.65c3.25,2,8.43,3,12.06,1.46a15.06,15.06,0,0,0,8.42-9.53,20.58,20.58,0,0,0,8.75,5.19c3.86,1.05,8.61.76,12.54.1,4.11-.69,8-2.22,10.8-5.46,2.29-2.66,4.83-6,5.14-9.59a13.59,13.59,0,0,0-3.28-9.61c-2.87-3.47-7.06-5.65-11.13-5a8.2,8.2,0,0,0-3.54-4.7c-2.31-1.48-5.77-1.36-8.47-.58-.19-.44-.39-.86-.6-1.24-2.17-3.9-6.9-7.39-11.52-7.12-3.51.21-8.07,1.36-10.1,4.54a8.57,8.57,0,0,0-1.15,2.92,21.35,21.35,0,0,0-5.32-2.07,17.61,17.61,0,0,0-6.86.14c-4,.66-8.16,4.32-9,8.4,0,.11,0,.22-.07.33a22,22,0,0,0-12.34-1.1,12.59,12.59,0,0,0-9.75,9.75,9.5,9.5,0,0,0-8.42.43C199.18,279.39,197,284.18,199.83,289.67Zm19.88-11.06c-.17-5.94,6.15-9.43,11.45-8.66a15.17,15.17,0,0,1,7.3,3.56,12.41,12.41,0,0,1,6.23-10.82c4.19-2.35,9.44-1.88,13.73.24-.39-4.31,3.6-6.8,7.7-7.15a14.16,14.16,0,0,1,12.79,6.9c.14.27-.1.68-.43.56a5.12,5.12,0,0,0-5.46,1.39,8.52,8.52,0,0,1,6.2,1.9c1.83,1.5,2.52,4,3.8,6,1.32-2.13-1.48-5.16-2.71-6.73a.38.38,0,0,1,0-.54c3-3.21,7.68.39,9.17,3.43.14.3.27.6.39.91,3.51-2.1,8.91.61,11.19,3.83,3.66,5.17,1.7,12.34-2.8,16.32-4.9,4.33-12.22,4.32-18.18,2.58a21.14,21.14,0,0,1-12.36-9.77,12.75,12.75,0,0,1-2,6.74c-2.38,3.79-6.69,5.54-11,6.09a13.77,13.77,0,0,1-12.48-4.48c-.26-.31-.5-.63-.74-1l-.26.11a16.37,16.37,0,0,1-8.78,1.06C226.31,290,219.91,285.42,219.71,278.61Zm-7.85-.32c3.27.38,5.55,5,4,8.11-2,4-7.47,4.4-10.87,2C199.08,284.11,206.46,275.55,211.86,278.29Z" transform="translate(-7.54 -4.62)"/></g></g></svg>